<svg xmlns="http://www.w3.org/2000/svg" xmlns:xlink="http://www.w3.org/1999/xlink" width="172.013" height="59.109" viewBox="0 0 172.013 59.109"><defs><clipPath id="clip-path"><rect id="Rectangle_134" data-name="Rectangle 134" width="172.013" height="59.109" transform="translate(0 0)" fill="none"></rect></clipPath></defs><g id="Main_logo" data-name="Main logo" transform="translate(0 0.004)"><g id="Group_173" data-name="Group 173" transform="translate(0 -0.004)" clip-path="url(#clip-path)"><path id="Path_1127" data-name="Path 1127" d="M1567.92,21.324c2.724,15.673-16.256,32.062-42.393,36.605s-49.535-4.479-52.259-20.152,16.255-32.062,42.393-36.605,49.535,4.479,52.259,20.152" transform="translate(-1396.167 0.004)" fill="#cdb977"></path><path id="Path_1128" data-name="Path 1128" d="M315,243.4c.051.408-.093.6-.444.6h-3.541c-.253,0-.418-.2-.48-.576l-1.342-9.12a.944.944,0,0,0-.137-.422.467.467,0,0,0-.353-.126h-7.335a.463.463,0,0,1-.529-.52l-.025-4.117c0-.309.139-.464.434-.464h11.579a.6.6,0,0,1,.68.6Zm-7.715,0c.037.408-.079.6-.36.6h-3.569a.533.533,0,0,1-.6-.548l-.728-7.139c-.044-.464.082-.689.405-.689h3.541q.527,0,.585.632Z" transform="translate(-285.119 -216.729)" fill="#071538"></path><path id="Path_1129" data-name="Path 1129" d="M586.939,237.413c.037.408-.107.6-.444.6h-3.373c-.253,0-.418-.2-.48-.576l-.552-3.274c-.048-.267-.135-.408-.248-.408h-1.757c-.365,0-.541-.169-.529-.52l.143-4.117q.026-.464.405-.464h5.438a.614.614,0,0,1,.708.6Z" transform="translate(-549.324 -216.73)" fill="#071538"></path><path id="Path_1130" data-name="Path 1130" d="M739.827,160.493c.051.632.09,1.166.1,1.616a23.878,23.878,0,0,1-.028,2.8,10.152,10.152,0,0,1-.369,2.094,10.594,10.594,0,0,1-.4,1.054c-.144.309-.305.59-.454.857s-.328.52-.509.759-.362.478-.556.717a10.029,10.029,0,0,1-1.511,1.5,14.232,14.232,0,0,1-2.058,1.405c-.237.127-.406.127-.492,0l-2.514-3.682c-.19-.281-.148-.506.128-.661a12.806,12.806,0,0,0,2.353-1.63,5.608,5.608,0,0,0,1.311-1.644,6.356,6.356,0,0,0,.4-1.152,6.741,6.741,0,0,0,.185-1.321c.016-.323-.1-.492-.357-.492h-6.408c-.407,0-.625-.169-.666-.492l-1.022-7.911c-.037-.3.112-.45.434-.464l3.51-.141a.576.576,0,0,1,.4.084.634.634,0,0,1,.172.365l.532,3.007c.034.155.048.267.056.337s.1.112.253.112H738.9c.408,0,.633.225.689.675.092.843.17,1.574.235,2.206" transform="translate(-689.037 -145.684)" fill="#071538"></path><path id="Path_1131" data-name="Path 1131" d="M1016.036,223.017c.062.6.092,1.18.1,1.714a7.326,7.326,0,0,1-.129,1.546,5.511,5.511,0,0,1-.51,1.419,5.972,5.972,0,0,1-.981,1.363c-.1.112-.1.2-.023.267l2.659,2.825a.609.609,0,0,1,.181.323.333.333,0,0,1-.133.281l-2.767,2.473c-.151.141-.357.07-.6-.2l-7.525-8.221a.354.354,0,0,0-.105-.056c-.044-.014-.065.042-.037.155l.515,2.867c.03.126.051.183.081.2a.4.4,0,0,0,.158.028h1.307c.309,0,.46.2.455.6l-.033,3.654c-.005.3-.142.436-.409.436h-4.4c-.225,0-.358-.169-.4-.52l-.879-6.661a.975.975,0,0,1,.068-.351.954.954,0,0,1,.27-.422l1.431-1.476a.311.311,0,0,0,.081-.141c-.005-.042-.039-.084-.1-.155l-2.556-2.67c-.213-.239-.237-.436-.076-.6l2.7-2.754c.188-.183.406-.126.682.169l7.045,7.645c.083.1.153-.014.212-.323.026-.126.04-.351.07-.675a6.86,6.86,0,0,0-.094-1.307c-.037-.3-.125-.436-.251-.436h-1.321c-.365,0-.545-.2-.536-.576l.114-3.569a.474.474,0,0,1,.539-.52h4.328c.351,0,.531.2.564.576Z" transform="translate(-949.324 -207.421)" fill="#071538"></path><path id="Path_1132" data-name="Path 1132" d="M14.781,581.289c.037.408-.107.6-.444.6H2.673c-.267,0-.411-.141-.448-.436l-.869-7.588a.954.954,0,0,1,.165-.7l.916-1.208c.17-.211.116-.309-.179-.309H.529c-.365,0-.541-.169-.529-.52l.171-4.117q.026-.464.406-.464H12.606a.614.614,0,0,1,.708.6ZM9.353,572.2a.819.819,0,0,0-.181-.436.631.631,0,0,0-.408-.112H5.8c-.239,0-.332.155-.293.464l.5,3.991c.041.323.2.492.469.492h3.19c.225,0,.32-.141.268-.436Z" transform="translate(0 -536.993)" fill="#071538"></path><path id="Path_1133" data-name="Path 1133" d="M298.045,575.3c.037.408-.107.6-.444.6h-3.373c-.253,0-.418-.2-.48-.576l-.552-3.274c-.048-.267-.136-.408-.248-.408h-1.757c-.365,0-.541-.169-.529-.52l.143-4.117q.026-.464.405-.464h5.438a.614.614,0,0,1,.708.6Z" transform="translate(-275.5 -536.993)" fill="#071538"></path><path id="Path_1134" data-name="Path 1134" d="M467.6,581.289c.037.408-.107.6-.444.6H463.8c-.267,0-.432-.2-.48-.576l-1.286-9.12c-.046-.365-.237-.548-.561-.548h-5.958c-.365,0-.541-.169-.529-.52l.087-4.117c0-.309.138-.464.434-.464h9.935a.614.614,0,0,1,.708.6Z" transform="translate(-431.251 -536.993)" fill="#071538"></path><path id="Path_1135" data-name="Path 1135" d="M717.32,581.289c.037.408-.107.6-.444.6h-3.359c-.267,0-.432-.2-.48-.576l-1.286-9.12c-.046-.365-.237-.548-.561-.548h-5.958c-.365,0-.541-.169-.529-.52l.087-4.117c0-.309.138-.464.434-.464h9.935a.614.614,0,0,1,.708.6Z" transform="translate(-667.942 -536.993)" fill="#071538"></path><path id="Path_1136" data-name="Path 1136" d="M979.383,581.893h-3.288c-.281,0-.488-.2-.62-.576l-1.292-3.794q-.039-.148-.148-.169c-.07,0-.105.056-.107.155l-.136,2.164a2.019,2.019,0,0,1-.115.646,1.889,1.889,0,0,1-.341.534,2.492,2.492,0,0,1-.444.379,4.123,4.123,0,0,1-.62.323,5.687,5.687,0,0,1-.7.253,4.5,4.5,0,0,1-.711.155l-.873.1a.8.8,0,0,1-.483-.042.365.365,0,0,1-.137-.309l-.1-4.623a.486.486,0,0,1,.077-.281.362.362,0,0,1,.279-.126,7.519,7.519,0,0,0,1.122-.127,8.018,8.018,0,0,0,1.054-.225,6.082,6.082,0,0,0,.9-.3,2.444,2.444,0,0,0,.644-.351.363.363,0,0,0,.1-.183.908.908,0,0,0-.055-.323l-.9-3.007c-.1-.351-.262-.52-.487-.52h-2.726c-.365,0-.541-.169-.526-.492l.178-4.174a.427.427,0,0,1,.493-.436h5.48a.687.687,0,0,1,.7.576l4.042,14.165c.121.408.02.6-.275.6" transform="translate(-918.223 -536.993)" fill="#071538"></path><path id="Path_1137" data-name="Path 1137" d="M1192.044,581.893l-7.072.309a.846.846,0,0,1-.485-.056.553.553,0,0,1-.123-.422l.039-4.5c.005-.07,0-.126.007-.169s.005-.07.017-.084a.67.67,0,0,1,.522-.211l2.35-.084q.314-.021.253-.337l-.675-4.145q-.09-.548-.406-.548h-2c-.379,0-.555-.169-.543-.52l.115-4.117c0-.309.124-.464.391-.464h5.537a.628.628,0,0,1,.708.6l1.782,13.968c.064.506-.073.759-.423.773" transform="translate(-1122.172 -536.993)" fill="#071538"></path><path id="Path_1138" data-name="Path 1138" d="M1513.071,188.49c.036-6.2.84-12.569.812-18.745-.009-2.126-.394-3.886-2.511-4.819L1500.7,161.9c-.392-.819-.5-1.146-1.378-1.477a23.3,23.3,0,0,0-3.243-.961,25.892,25.892,0,0,0-4.082-.181,2.47,2.47,0,0,0-1.854,1.678c-.383-.005-.771-.063-1.154-.054-3.14.075-6.476.082-9.593.269a4.461,4.461,0,0,0-3.173,1.24c-1.552,1.442-1.735,3.409-2.15,5.372-1.045-1.6-1.461-2.268-3.381-2.755a67.975,67.975,0,0,0-16.914-1.544c-2.581.038-6.24-.084-8.463,1.195a60.491,60.491,0,0,0-6.615,5.05,78.787,78.787,0,0,0-7.878.4,5.222,5.222,0,0,0-3.157,1.362c-.212.208-.416.632-.622.752-.251.145-.585.1-.857.19-1.449.5-1.439,2.139-1.445,3.429a8.517,8.517,0,0,1,.111.989c-.026.135-.317.277-.414.421-.8,1.206-.911,5.466-.365,6.793a5.9,5.9,0,0,0,3.116,2.815,7.7,7.7,0,0,0,1.319,5.862l1.314,1.184a9.072,9.072,0,0,0-1.708.029c-1.441-.008-3.554-.368-4.878-.209-.9.107-.525,1.4-.612,2.094h90.159c.029-.1.052-.2.074-.317l-.173-.407a6,6,0,0,1-.727-.176c-1.623-.231-3.773-.163-5.465-.236-.026,0-.107.086-.2.091l-.042-.2c1.36-.632,1.889-2.576,2.028-3.972a2.17,2.17,0,0,0-.052-1.028l4.05.175c.347.015.843-.93.792-1.282m-37.765-17.77a36.352,36.352,0,0,1,1.025-4.716c.335-1.33.644-2.519,2.2-2.811l16.534-.467-.863,1.307c-.72,3.832-1.7,8.039-2.1,11.913-.166,1.607-.074,3.311-.214,4.927l-6.148-.266a21.807,21.807,0,0,0-.037-4.324c-.292-1.807-1.075-2.094-2.755-2.347-2.118-.318-4.3-.382-6.421-.671-.206-.028-.41-.1-.614-.14-.057-.719-.632-1.716-.606-2.4m-30.29-3.606a5.653,5.653,0,0,1,2.993-1.539c2.011-.07,4.312.154,6.355.185,2.069.031,4.173.056,6.253.073a.915.915,0,0,0,.343-.085l-2.977,5.234-15.964-1.311c1.027-.814,1.959-1.76,3-2.557M1435,194.054c-.047-.272.26-.215.456-.37a6.235,6.235,0,0,0,1.866-2.564c.106-.276.29-1.281.465-1.332,2.852.081,5.718.479,8.575.46a10.108,10.108,0,0,1,2.4-.1,9.151,9.151,0,0,0,.9,3.95Zm23.082-4.619c-.12,1.356-.938,4.14-2.671,3.943-1.249-.142-1.786-2.415-1.838-3.471-.068-1.395.5-5.008,2.418-4.982,1.8.025,2.209,3.179,2.091,4.509m15.581,4.728-15.3-.077a6.992,6.992,0,0,0,1.45-4.141l12.476-.15a6.117,6.117,0,0,0,1.143,4.019.433.433,0,0,0,.286.157Zm.045-6.8-13.2.266a32.514,32.514,0,0,0-.025-4.242c-.1-1.262-.35-3.822-1.315-4.7s-4.181-.965-5.327-.424c-1.923.908-2.637,5.589-3.47,7.457-.219.49-.732,1.232-1.275,1.368a13.191,13.191,0,0,1-1.714.073,28.9,28.9,0,0,1-3.229-.141,3.036,3.036,0,0,1-2.571-2.657l4.929.213c1.7-.207,2.535-2.672.618-3.191l-20.237-.935c-1.273-1.081-.495-2.543-.327-3.827.068-.523-.041-2.2.257-2.479,1.176-.3,1.755-1.557,2.807-2.049,1.188-.555,4-.153,5.405-.136,5.617.07,11.3-.053,16.892.34,2.333.164,4.665.36,7,.573.158-.041.214-.17.295-.291.464-.7.953-2.053,1.39-2.878.512-.966,1.612-3.3,2.5-3.812a1.607,1.607,0,0,1,.737-.218c2.2.458,4.706.549,6.868,1.107,1.483.383,1.907,1.544,2.414,2.847a45.152,45.152,0,0,1,1.445,5.1l9.268,1.293c.195.171.261.957.28,1.243.068,1.021-.252,4.455.036,5.028.07.14.259.227.3.382a5.348,5.348,0,0,1-.027,1.156c-.177,1.4-1.073,2.981-2.67,2.863.029-1.751.54-5.883-1.069-7.032a4.529,4.529,0,0,0-3.656-.113c-1.363.933-1.9,4.952-2.512,6.56-.139.364-.449,1.1-.814,1.258m3.435,4.64a7.949,7.949,0,0,1,.149-5.433c.362-.784,1.1-1.652,1.934-.835,1.345,1.325,1.074,5.409-.137,6.78-.78.883-1.548.42-1.946-.512m4.439,2.107c-.23,0-.448.074-.679.076-1.227.014-.829-.021-.414-.655a7.549,7.549,0,0,0,.99-2.6l.082-1.9,3.611.156-.078,1.805a4.791,4.791,0,0,0,1.3,2.742l.708.521c-1.839-.019-3.682-.114-5.522-.144m20.075.481-12.6-.4c1.679-.785,1.906-2.913,2.112-4.555l9.25.416.14.153a6.59,6.59,0,0,0,.5,3.287c.071.156.672,1.032.592,1.1m3.931-1.58c-1.164.018-1.5-2.19-1.485-3.052s.471-3.242,1.588-3.29c.929.131,1.267,1.275,1.377,2.07.172,1.255-.033,3.828-1.48,4.271m2.571-15.346-1.362-.156.249-5.758,1.358.255Zm3.176,10.208-1.952-.085.7-16.152a1.726,1.726,0,0,0-.541-1,9.89,9.89,0,0,0-3.335-.981c-.232.013-.647.327-.655.517l-.572,13.223-2.391-.1c-.451-.02-1.125.958-1.3,1.344a29.045,29.045,0,0,1-.885,2.816c-1.582.043-3.161-.12-4.741-.162a7.571,7.571,0,0,1-.975.061c-1.032-.13-1.2-1.192-1.236-2.055a109.027,109.027,0,0,1,2.13-19.453,2.905,2.905,0,0,1,1.1-2.067,1.933,1.933,0,0,1,1.836-.186c3.967.827,7.968,2.248,11.95,3.1.605.119,1.727,1.225,1.7,1.814Z" transform="translate(-1348.407 -150.94)" fill="#071538"></path><path id="Path_1139" data-name="Path 1139" d="M1549.02,299.469c-.039-.154-.229-.242-.3-.382-.288-.573.032-4.007-.036-5.028-.019-.286-.085-1.072-.28-1.243l-9.268-1.293a45.153,45.153,0,0,0-1.445-5.1c-.507-1.3-.931-2.464-2.414-2.847-2.162-.559-4.666-.649-6.868-1.107a1.607,1.607,0,0,0-.737.218c-.891.517-1.991,2.847-2.5,3.812-.437.825-.926,2.177-1.39,2.878-.08.121-.137.25-.295.291-2.335-.212-4.667-.408-7-.573-5.6-.393-11.275-.27-16.892-.34-1.408-.017-4.217-.419-5.405.136-1.053.492-1.631,1.753-2.807,2.049-.3.277-.188,1.957-.257,2.479-.167,1.284-.946,2.745.327,3.827l20.237.935c1.917.52,1.078,2.985-.618,3.191l-4.929-.213a3.036,3.036,0,0,0,2.571,2.657,28.9,28.9,0,0,0,3.229.141,13.188,13.188,0,0,0,1.714-.073c.544-.136,1.057-.878,1.275-1.368.833-1.868,1.547-6.549,3.47-7.457,1.147-.541,4.362-.453,5.327.424s1.218,3.436,1.315,4.7a32.514,32.514,0,0,1,.025,4.242l13.2-.266c.366-.158.675-.894.814-1.258.616-1.608,1.149-5.627,2.512-6.56a4.529,4.529,0,0,1,3.656.113c1.609,1.15,1.1,5.281,1.069,7.032,1.6.117,2.493-1.465,2.67-2.863a5.348,5.348,0,0,0,.027-1.156m-42.691-4.9a2.069,2.069,0,0,1-1.986,1.82c-3.487.2-7.488-.586-11.03-.473a1.5,1.5,0,0,1-1.32-1.959,15.8,15.8,0,0,1,1.712-3.549c.442-.459.857-.421,1.464-.448a66,66,0,0,1,8.954.355,1.237,1.237,0,0,1,.958.434,15.647,15.647,0,0,1,1.249,3.821m10.046-1.819a3.472,3.472,0,0,1-1.8,1.515,24.5,24.5,0,0,1-4.765-.087c-.617-.019-1.189.241-1.757-.3s-1.014-2.073-.489-2.761a.514.514,0,0,1,.2-.195c.469-.278,3.287.013,4.055.028a14.272,14.272,0,0,1,3.659.1,1.345,1.345,0,0,1,.9,1.7m9.138-3.316a17.76,17.76,0,0,1,1.622-3.857c.324-.607.771-1.583,1.531-1.7a8,8,0,0,1,2.2.191c.728.2.861,1.89.986,2.563a33.55,33.55,0,0,1,.569,3.607c.007.149.035.388-.105.478l-5.713-.3c-.527-.082-1.072-.39-1.088-.978m5.558,4.937a.885.885,0,0,1-.293-1.5c.436-.375,1.6-.117,2.154-.113,1.341,1.458-.593,2-1.861,1.613m5.727-3.469c-.473.118-2.631.31-2.89.023l-1.129-6.6c.88.114,2.642.121,3.189.871a15.417,15.417,0,0,1,1.439,4.022c.2.9.5,1.407-.609,1.686" transform="translate(-1412.97 -267.737)" fill="#f5faff"></path><path id="Path_1140" data-name="Path 1140" d="M2797.478,243.006c-3.982-.851-7.983-2.272-11.95-3.1a1.933,1.933,0,0,0-1.836.186,2.9,2.9,0,0,0-1.1,2.067,109.016,109.016,0,0,0-2.13,19.453c.033.863.2,1.925,1.236,2.055a7.568,7.568,0,0,0,.975-.061c1.58.042,3.159.2,4.741.162a29.046,29.046,0,0,0,.885-2.816c.173-.385.847-1.364,1.3-1.344l2.391.1.572-13.223c.008-.19.423-.5.655-.517a9.89,9.89,0,0,1,3.335.981,1.727,1.727,0,0,1,.541,1l-.7,16.152,1.952.085.838-19.372c.025-.589-1.1-1.7-1.7-1.814m-7.226,9.352a.942.942,0,0,1-.146.5.9.9,0,0,1-.519.106c-.824-.05-2.055-.291-2.914-.428-.433-.069-2.09-.261-2.267-.545l.323-7.4a.945.945,0,0,1,1.023-.5,30.073,30.073,0,0,1,3.96.874,1.257,1.257,0,0,1,.594.393,1.771,1.771,0,0,1,.214.835,46.5,46.5,0,0,1-.267,6.156" transform="translate(-2635.413 -227.258)" fill="#f5faff"></path><path id="Path_1141" data-name="Path 1141" d="M2435.819,226.379c-1.558.292-1.866,1.482-2.2,2.811a36.353,36.353,0,0,0-1.025,4.716c-.026.688.549,1.684.606,2.4.2.037.407.112.614.14,2.124.289,4.3.353,6.421.671,1.68.252,2.463.54,2.755,2.347a21.807,21.807,0,0,1,.037,4.324l6.148.266c.14-1.616.048-3.32.214-4.927.4-3.874,1.382-8.08,2.1-11.913l.863-1.307Zm9.6,9.341a2.117,2.117,0,0,1-1.34.788,38.762,38.762,0,0,1-4.983-.214,10.8,10.8,0,0,1-1.832-.288,1.037,1.037,0,0,1-.284-.489,11.437,11.437,0,0,1,.525-3.112c.187-.671.371-1.452,1.171-1.585,1.99.185,4.273-.027,6.228.243a1.233,1.233,0,0,1,1.168,1.28Z" transform="translate(-2305.693 -214.127)" fill="#f5faff"></path><path id="Path_1142" data-name="Path 1142" d="M1810.476,285.7l-15.964-1.311c1.026-.814,1.959-1.759,3-2.557a5.651,5.651,0,0,1,2.994-1.539c2.01-.07,4.311.154,6.355.185,2.069.031,4.173.056,6.252.073a.911.911,0,0,0,.343-.085Z" transform="translate(-1700.9 -265.662)" fill="#f5faff"></path><path id="Path_1143" data-name="Path 1143" d="M2018.309,651.489c-1.914-.027-2.487,3.587-2.418,4.982.052,1.055.588,3.328,1.838,3.471,1.733.2,2.551-2.587,2.671-3.943.118-1.33-.287-4.485-2.091-4.509m.875,4.819c-.106.591-.7,1.768-1.453,1.287-.913-.646-.723-3.606.388-3.784s1.194,1.782,1.065,2.5" transform="translate(-1910.725 -617.504)" fill="#f5faff"></path><path id="Path_1144" data-name="Path 1144" d="M2462.463,661.041c-.83-.817-1.573.051-1.935.835a7.95,7.95,0,0,0-.148,5.433c.4.932,1.166,1.395,1.946.512,1.211-1.371,1.482-5.455.137-6.78m-.018,3.631c-.023.515-.479,2.149-1.208,1.569-.547-.436-.461-3.209.372-3.4.686-.157.856,1.365.836,1.831" transform="translate(-2331.645 -626.245)" fill="#f5faff"></path><path id="Path_1145" data-name="Path 1145" d="M2987.587,686.992c-.11-.8-.448-1.94-1.377-2.07-1.117.049-1.577,2.431-1.588,3.29s.321,3.07,1.485,3.052c1.447-.443,1.653-3.016,1.48-4.271m-1.413,2.608c-.833.043-.7-2.644-.177-3.015a.629.629,0,0,1,.317-.069c.858.135.735,3.039-.14,3.084" transform="translate(-2828.927 -649.192)" fill="#f5faff"></path><path id="Path_1146" data-name="Path 1146" d="M3037.872,399.188l-.245,5.66-1.362-.157.249-5.758Z" transform="translate(-2877.876 -378.123)" fill="#f5faff"></path><path id="Path_1147" data-name="Path 1147" d="M1517.29,425.465a65.955,65.955,0,0,1,8.954.355,1.238,1.238,0,0,1,.958.433,15.655,15.655,0,0,1,1.249,3.821,2.069,2.069,0,0,1-1.986,1.82c-3.487.2-7.488-.586-11.03-.472a1.5,1.5,0,0,1-1.32-1.96,15.829,15.829,0,0,1,1.712-3.549c.442-.459.856-.421,1.464-.448" transform="translate(-1435.093 -403.24)" fill="#071538"></path><path id="Path_1148" data-name="Path 1148" d="M2160.558,309a7.98,7.98,0,0,1,2.2.191c.729.2.862,1.89.986,2.563a33.439,33.439,0,0,1,.568,3.607c.007.149.036.388-.1.478l-5.713-.3c-.528-.082-1.072-.39-1.088-.978a17.8,17.8,0,0,1,1.622-3.857c.324-.607.772-1.582,1.531-1.7" transform="translate(-2044.861 -292.863)" fill="#071538"></path><path id="Path_1149" data-name="Path 1149" d="M1809.66,445.25c-.557-.532-1.014-2.073-.489-2.761a.514.514,0,0,1,.2-.194c.469-.278,3.287.012,4.055.027a14.274,14.274,0,0,1,3.659.1,1.344,1.344,0,0,1,.9,1.7,3.469,3.469,0,0,1-1.8,1.515,24.439,24.439,0,0,1-4.766-.087c-.617-.019-1.189.241-1.757-.3" transform="translate(-1714.575 -419.109)" fill="#071538"></path><path id="Path_1150" data-name="Path 1150" d="M2296.706,318c.88.114,2.642.121,3.189.871a15.4,15.4,0,0,1,1.439,4.022c.2.9.5,1.407-.609,1.686-.473.119-2.631.311-2.89.023Z" transform="translate(-2176.897 -301.411)" fill="#071538"></path><path id="Path_1151" data-name="Path 1151" d="M2252.906,478.169c.436-.374,1.6-.117,2.154-.113,1.341,1.457-.593,2-1.861,1.613a.885.885,0,0,1-.293-1.5" transform="translate(-2135.098 -453.033)" fill="#071538"></path><path id="Path_1152" data-name="Path 1152" d="M2861.829,331.469a.9.9,0,0,1-.519.107c-.824-.05-2.055-.291-2.914-.428-.434-.069-2.09-.262-2.267-.545l.322-7.4a.946.946,0,0,1,1.023-.5,30.164,30.164,0,0,1,3.96.874,1.255,1.255,0,0,1,.594.393,1.77,1.77,0,0,1,.214.834,46.543,46.543,0,0,1-.266,6.156.944.944,0,0,1-.147.5" transform="translate(-2707.137 -305.866)" fill="#071538"></path><path id="Path_1153" data-name="Path 1153" d="M2517.968,319.988c1.99.185,4.273-.026,6.228.243a1.233,1.233,0,0,1,1.168,1.28l-.652,3.378a2.118,2.118,0,0,1-1.34.788,38.779,38.779,0,0,1-4.984-.214,10.8,10.8,0,0,1-1.832-.289,1.039,1.039,0,0,1-.284-.489,11.437,11.437,0,0,1,.525-3.112c.187-.671.371-1.452,1.17-1.585" transform="translate(-2384.989 -303.295)" fill="#071538"></path><path id="Path_1154" data-name="Path 1154" d="M2041.1,695.793c1.1-.176,1.194,1.782,1.065,2.5-.106.591-.7,1.768-1.453,1.287-.913-.646-.722-3.606.388-3.784" transform="translate(-1933.711 -659.486)" fill="#071538"></path><path id="Path_1155" data-name="Path 1155" d="M2478.336,701.334c.686-.157.857,1.365.836,1.831-.023.515-.479,2.149-1.208,1.568-.547-.436-.461-3.209.372-3.4" transform="translate(-2348.371 -664.738)" fill="#071538"></path><path id="Path_1156" data-name="Path 1156" d="M3003.354,715.512a.625.625,0,0,1,.316-.07c.859.134.735,3.039-.139,3.084-.833.043-.7-2.643-.177-3.014" transform="translate(-2846.284 -678.119)" fill="#071538"></path></g></g></svg>