<?xml version="1.0" encoding="UTF-8"?>
<svg id="b" data-name="Layer 2" xmlns="http://www.w3.org/2000/svg" width="416.528" height="65" viewBox="0 0 416.528 65">
  <g id="c" data-name="Layer 1">
    <g id="d" data-name="Group 1">
      <path id="e" data-name="Path 4" d="M173.907,27.068c1.395-2.628,3.508-4.805,6.092-6.279,2.723-1.518,5.799-2.287,8.916-2.229,3.83-.149,7.6.99,10.707,3.234,2.897,2.267,4.908,5.479,5.684,9.075h-9.473c-.444-1.426-1.336-2.67-2.544-3.548-1.3-.891-2.852-1.342-4.427-1.288-2.313-.096-4.533.918-5.974,2.73-2.931,4.733-2.931,10.716,0,15.449,1.439,1.805,3.651,2.816,5.957,2.724,3.163.271,6.079-1.724,6.972-4.771h9.473c-.828,3.556-2.844,6.724-5.715,8.98-3.075,2.293-6.842,3.468-10.676,3.329-3.117.059-6.194-.71-8.916-2.229-2.585-1.474-4.697-3.651-6.092-6.279-2.931-5.96-2.931-12.942,0-18.902" fill="#efefef"/>
      <path id="f" data-name="Path 5" d="M214.687,52.25c-2.659-1.465-4.848-3.653-6.312-6.312-1.569-2.887-2.359-6.134-2.291-9.419-.067-3.294.746-6.546,2.355-9.421,1.513-2.665,3.743-4.852,6.438-6.312,5.707-2.971,12.505-2.971,18.212,0,2.694,1.46,4.924,3.647,6.436,6.312,1.609,2.875,2.422,6.127,2.355,9.421.066,3.301-.77,6.558-2.419,9.419-1.555,2.666-3.816,4.851-6.535,6.312-2.83,1.508-5.995,2.274-9.201,2.229-3.156.048-6.27-.72-9.042-2.229M228.216,45.655c1.435-.808,2.603-2.017,3.36-3.48.883-1.75,1.314-3.692,1.255-5.651.184-2.789-.754-5.537-2.606-7.631-1.658-1.746-3.973-2.714-6.38-2.668-2.388-.052-4.684.919-6.31,2.668-1.814,2.112-2.728,4.852-2.544,7.631-.184,2.768.704,5.5,2.48,7.631,1.596,1.755,3.877,2.729,6.248,2.668,1.572.006,3.119-.393,4.491-1.16" fill="#efefef"/>
      <path id="g" data-name="Path 6" d="M270.898,22.546c2.69,2.993,4.067,6.941,3.822,10.958v20.41h-8.791v-19.217c.155-2.314-.588-4.599-2.073-6.38-1.474-1.523-3.534-2.336-5.651-2.229-2.146-.112-4.237.699-5.746,2.229-1.505,1.772-2.259,4.061-2.103,6.38v19.217h-8.793V19.115h8.793v4.333c1.193-1.524,2.733-2.74,4.491-3.548,1.877-.87,3.924-1.31,5.993-1.288,3.753-.157,7.399,1.267,10.053,3.925" fill="#efefef"/>
      <path id="h" data-name="Path 7" d="M290.66,45.818l8.793-26.689h9.357l-12.874,34.8h-10.676l-12.81-34.8h9.421l8.789,26.689Z" fill="#efefef"/>
      <path id="i" data-name="Path 8" d="M340.29,39.155h-25.435c.083,2.234,1.028,4.35,2.637,5.902,1.557,1.423,3.606,2.186,5.715,2.127,2.971.178,5.744-1.497,6.97-4.209h9.483c-.976,3.308-3.004,6.208-5.777,8.259-3.038,2.217-6.729,3.356-10.488,3.234-3.146.051-6.252-.717-9.011-2.229-2.636-1.462-4.795-3.653-6.217-6.31-1.53-2.9-2.297-6.141-2.229-9.419-.072-3.295.684-6.556,2.198-9.483,1.394-2.649,3.533-4.832,6.154-6.279,5.639-2.908,12.332-2.931,17.991-.062,2.577,1.385,4.694,3.491,6.092,6.061,1.482,2.769,2.228,5.871,2.167,9.011.009,1.135-.075,2.269-.251,3.391M331.434,33.245c.037-2.086-.862-4.079-2.449-5.433-1.63-1.374-3.709-2.101-5.841-2.042-2.016-.059-3.979.648-5.495,1.978-1.548,1.439-2.519,3.392-2.732,5.494l16.516.002Z" fill="#efefef"/>
      <path id="j" data-name="Path 9" d="M353.764,20.192c1.907-1.068,4.063-1.61,6.249-1.57v9.232h-2.32c-3.998-.647-7.763,2.069-8.411,6.067-.143.883-.123,1.786.059,2.662v17.332h-8.793V19.115h8.793v5.4c1.085-1.796,2.608-3.287,4.427-4.333" fill="#efefef"/>
      <path id="k" data-name="Path 10" d="M374.488,26.345v16.829c-.087.929.22,1.851.847,2.542.824.603,1.841.883,2.857.785h4.081v7.41h-5.527c-7.41,0-11.115-3.6-11.115-10.801v-16.766h-4.145v-7.223h4.145v-8.603h8.854v8.603h7.787v7.223h-7.785Z" fill="#efefef"/>
      <path id="l" data-name="Path 11" d="M389.334,52.25c-2.658-1.465-4.846-3.654-6.31-6.312-1.57-2.887-2.36-6.133-2.293-9.419-.067-3.294.746-6.546,2.355-9.421,1.512-2.665,3.742-4.852,6.436-6.312,5.707-2.971,12.505-2.971,18.212,0,2.694,1.46,4.924,3.647,6.436,6.312,1.61,2.875,2.422,6.127,2.355,9.421.067,3.301-.769,6.558-2.417,9.419-1.554,2.666-3.814,4.85-6.531,6.312-2.83,1.508-5.995,2.275-9.201,2.229-3.156.048-6.272-.72-9.044-2.229M402.866,45.655c1.435-.808,2.603-2.017,3.36-3.48.883-1.75,1.315-3.692,1.255-5.651.184-2.789-.754-5.537-2.606-7.631-1.658-1.746-3.973-2.714-6.38-2.668-2.389-.053-4.686.918-6.312,2.668-1.814,2.113-2.727,4.852-2.542,7.631-.184,2.768.704,5.5,2.48,7.631,1.596,1.755,3.877,2.729,6.249,2.668,1.572.006,3.119-.394,4.491-1.16" fill="#efefef"/>
      <path id="m" data-name="Path 12" d="M73.692,24.831l2.409-.599,1.139-.284,14.262-3.563,14.952-3.739,14.629-3.654,17.375-4.34V0h-30.57l-29.203,7.306-.518.128h-1.164l-3.965-1.247-3.385-1.054-4.025-1.266-12.387-3.867H.628l3.994,1.243,22.552,7.07,3.37,1.054,17.686,5.551L0,26.974v11.06l33.18,8.294h.014l15.115,3.778,14.972,3.743,13.052,3.269,1.206.302,30.318,7.581h30.604v-8.642l-31.934-8.008,17.709-5.539,3.364-1.052,3.391-1.059,7.474-2.335v-11.727l-9.75-3.051-9.396-2.933-29.193,7.298,9.404,2.931,5.158,1.609-3.84,1.197-19.091,5.949-4.489,1.409-3.563-.887c-3.205-.685-5.601-3.359-5.933-6.62h0c-.04-.348-.061-.698-.06-1.048-.107-3.665,2.411-6.887,5.993-7.669" fill="#efefef"/>
      <path id="n" data-name="Path 13" d="M26.051,57.058L.626,65h52.629l2.04-.636,9.609-3.001-29.247-7.306-9.605,3Z" fill="#efefef"/>
    </g>
  </g>
</svg>