<?xml version="1.0" encoding="UTF-8"?>
<svg id="b" data-name="Layer 2" xmlns="http://www.w3.org/2000/svg" width="397.965" height="65" viewBox="0 0 397.965 65">
  <g id="c" data-name="Layer 1">
    <g>
      <g>
        <rect x="42.93" y="2.289" width="9.149" height="54.822" fill="#efefef"/>
        <path d="M93.743,23.062V2.289h-9.149v20.897c-.014,3.353-1.849,6.295-4.572,7.866-1.338.788-2.905,1.234-4.574,1.234s-3.236-.445-4.574-1.234c-2.733-1.576-4.574-4.534-4.574-7.903v-9.137h-.003V2.289h-9.149v20.862c0,6.761,3.682,12.666,9.149,15.818v-.005s.002.001.003.002l.009.009v.006c1.407.811,2.939,1.451,4.563,1.862v.582h.003v15.69h9.149v-16.273c1.623-.411,3.155-1.05,4.56-1.861v-.002s.002,0,.003-.001c.009,0,.008-.006.009-.009h0c2.05-1.182,3.849-2.751,5.297-4.607,2.415-3.094,3.854-6.987,3.854-11.214,0-.029-.002-.058-.003-.087Z" fill="#efefef"/>
        <path d="M27.447,4.737c-2.688-1.553-5.81-2.444-9.149-2.444v9.137c5.055,0,9.149,4.089,9.149,9.137v18.274c0,5.037-4.094,9.137-9.149,9.137s-9.149-4.1-9.149-9.137v-9.137H0v9.137c0,6.761,3.682,12.666,9.149,15.818,0,0,0,.011.011.011,2.687,1.553,5.81,2.444,9.137,2.444s6.45-.891,9.137-2.444c.011,0,.011-.011.011-.011,5.466-3.152,9.149-9.057,9.149-15.818v-18.274c0-6.761-3.682-12.678-9.149-15.83Z" fill="#efefef"/>
        <path d="M18.298,43.41c2.527,0,4.574-2.044,4.574-4.568,0-.194-.011-.377-.034-.56-.274-2.262-2.207-4.009-4.54-4.009s-4.266,1.747-4.54,4.009c-.023.183-.034.365-.034.56,0,2.524,2.047,4.568,4.574,4.568Z" fill="#efefef"/>
      </g>
      <g>
        <path d="M126.129,11.56c-.51.945-1.31,1.705-2.397,2.282-1.088.577-2.46.866-4.116.866h-3.38v7.742h-4.044V2.287h7.424c1.559,0,2.888.271,3.986.809,1.098.539,1.921,1.282,2.47,2.225.549.945.824,2.013.824,3.206,0,1.08-.256,2.091-.766,3.034ZM121.926,10.68c.539-.511.809-1.228.809-2.153,0-1.964-1.098-2.945-3.294-2.945h-3.206v5.864h3.206c1.117,0,1.946-.256,2.485-.765Z" fill="#efefef"/>
        <path d="M143.36,15.662h-11.699c.097,1.157.501,2.061,1.213,2.715.712.656,1.589.983,2.629.983,1.502,0,2.571-.645,3.207-1.936h4.362c-.462,1.541-1.348,2.807-2.658,3.799-1.31.993-2.917,1.487-4.823,1.487-1.541,0-2.923-.341-4.146-1.025-1.223-.684-2.176-1.651-2.86-2.903-.684-1.252-1.025-2.696-1.025-4.333,0-1.656.337-3.11,1.011-4.362.673-1.251,1.618-2.214,2.831-2.887,1.212-.675,2.609-1.012,4.189-1.012,1.52,0,2.883.329,4.087.983,1.204.654,2.138,1.585,2.802,2.787.664,1.205.997,2.587.997,4.147,0,.577-.039,1.098-.116,1.559ZM139.288,12.946c-.019-1.04-.395-1.872-1.126-2.498-.732-.626-1.628-.939-2.687-.939-1.002,0-1.845.303-2.528.91-.684.607-1.102,1.449-1.256,2.527h7.597Z" fill="#efefef"/>
        <path d="M151.347,6.938c.838-.482,1.796-.722,2.874-.722v4.246h-1.069c-1.271,0-2.229.299-2.874.896s-.967,1.637-.967,3.119v7.973h-4.044V6.448h4.044v2.484c.52-.847,1.198-1.512,2.036-1.993Z" fill="#efefef"/>
        <path d="M163.118,9.77h-2.802v12.68h-4.102v-12.68h-1.82v-3.322h1.82v-.809c0-1.966.558-3.409,1.675-4.333,1.117-.925,2.802-1.358,5.056-1.301v3.409c-.982-.019-1.666.144-2.051.491-.386.348-.578.974-.578,1.879v.664h2.802v3.322Z" fill="#efefef"/>
        <path d="M167.538,21.685c-1.233-.684-2.2-1.651-2.903-2.903-.704-1.252-1.055-2.696-1.055-4.333s.361-3.081,1.084-4.333c.722-1.252,1.709-2.219,2.96-2.903,1.252-.684,2.647-1.026,4.189-1.026s2.937.343,4.189,1.026c1.252.684,2.239,1.651,2.961,2.903.722,1.252,1.083,2.696,1.083,4.333s-.37,3.081-1.112,4.333c-.741,1.252-1.743,2.219-3.004,2.903-1.261.684-2.672,1.025-4.232,1.025-1.54,0-2.927-.341-4.159-1.025ZM173.763,18.652c.645-.357,1.16-.891,1.545-1.604.385-.711.577-1.578.577-2.599,0-1.522-.399-2.691-1.198-3.51-.799-.818-1.777-1.228-2.932-1.228s-2.123.411-2.903,1.228c-.78.819-1.17,1.988-1.17,3.51s.38,2.691,1.141,3.51c.76.818,1.719,1.226,2.874,1.226.732,0,1.42-.177,2.066-.534Z" fill="#efefef"/>
        <path d="M187.946,6.938c.838-.482,1.796-.722,2.874-.722v4.246h-1.069c-1.271,0-2.229.299-2.874.896s-.967,1.637-.967,3.119v7.973h-4.044V6.448h4.044v2.484c.52-.847,1.198-1.512,2.036-1.993Z" fill="#efefef"/>
        <path d="M217.006,8.022c1.203,1.204,1.806,2.884,1.806,5.041v9.388h-4.044v-8.84c0-1.251-.318-2.209-.953-2.874-.636-.664-1.503-.997-2.6-.997s-1.969.332-2.614.997c-.645.664-.967,1.623-.967,2.874v8.84h-4.044v-8.84c0-1.251-.318-2.209-.953-2.874-.636-.664-1.502-.997-2.6-.997-1.117,0-1.998.332-2.643.997s-.967,1.623-.967,2.874v8.84h-4.044V6.448h4.044v1.934c.52-.673,1.189-1.202,2.007-1.588.818-.384,1.719-.577,2.701-.577,1.252,0,2.368.264,3.35.795.983.529,1.743,1.285,2.282,2.266.52-.924,1.276-1.665,2.268-2.225.991-.557,2.065-.837,3.221-.837,1.965,0,3.548.602,4.752,1.806Z" fill="#efefef"/>
        <path d="M221.426,10.087c.644-1.251,1.521-2.214,2.628-2.887,1.107-.675,2.345-1.012,3.712-1.012,1.194,0,2.239.242,3.134.722.896.482,1.612,1.089,2.152,1.821v-2.282h4.074v16.003h-4.074v-2.34c-.52.751-1.238,1.372-2.152,1.863-.915.491-1.969.736-3.163.736-1.348,0-2.576-.346-3.683-1.038-1.107-.694-1.984-1.672-2.628-2.933-.645-1.261-.968-2.71-.968-4.347,0-1.618.323-3.053.968-4.305ZM232.475,11.922c-.385-.703-.905-1.242-1.559-1.618-.656-.376-1.358-.564-2.109-.564s-1.445.183-2.08.548c-.635.367-1.151.901-1.545,1.604-.396.703-.592,1.536-.592,2.5s.197,1.806.592,2.527c.394.722.914,1.275,1.559,1.661.645.384,1.333.577,2.066.577.751,0,1.453-.188,2.109-.564.654-.376,1.174-.915,1.559-1.618s.577-1.545.577-2.527-.192-1.825-.577-2.527Z" fill="#efefef"/>
        <path d="M253.417,8.022c1.174,1.204,1.762,2.884,1.762,5.041v9.388h-4.044v-8.84c0-1.27-.318-2.247-.953-2.931-.636-.684-1.502-1.026-2.6-1.026-1.117,0-1.998.343-2.643,1.026s-.967,1.661-.967,2.931v8.84h-4.044V6.448h4.044v1.993c.538-.694,1.227-1.238,2.066-1.633.838-.393,1.757-.591,2.758-.591,1.907,0,3.448.602,4.622,1.806Z" fill="#efefef"/>
        <path d="M257.837,10.102c.673-1.244,1.607-2.206,2.801-2.889s2.561-1.026,4.102-1.026c1.983,0,3.625.496,4.925,1.489,1.299.991,2.171,2.383,2.614,4.173h-4.362c-.23-.692-.621-1.237-1.17-1.632s-1.228-.591-2.037-.591c-1.155,0-2.07.417-2.744,1.256-.674.838-1.011,2.026-1.011,3.568,0,1.522.337,2.701,1.011,3.538.674.838,1.589,1.258,2.744,1.258,1.637,0,2.706-.732,3.207-2.197h4.362c-.444,1.734-1.319,3.112-2.629,4.131-1.31,1.021-2.947,1.531-4.91,1.531-1.541,0-2.908-.341-4.102-1.025-1.194-.684-2.128-1.647-2.801-2.889-.675-1.242-1.011-2.691-1.011-4.347s.337-3.105,1.011-4.347Z" fill="#efefef"/>
        <path d="M288.861,15.662h-11.699c.097,1.157.501,2.061,1.213,2.715.712.656,1.589.983,2.629.983,1.502,0,2.571-.645,3.207-1.936h4.362c-.462,1.541-1.348,2.807-2.658,3.799-1.31.993-2.917,1.487-4.823,1.487-1.541,0-2.923-.341-4.146-1.025-1.223-.684-2.176-1.651-2.86-2.903s-1.025-2.696-1.025-4.333c0-1.656.337-3.11,1.011-4.362.673-1.251,1.618-2.214,2.831-2.887,1.212-.675,2.609-1.012,4.189-1.012,1.52,0,2.883.329,4.087.983s2.138,1.585,2.802,2.787c.664,1.205.997,2.587.997,4.147,0,.577-.039,1.098-.116,1.559ZM284.788,12.946c-.019-1.04-.395-1.872-1.126-2.498-.732-.626-1.628-.939-2.687-.939-1.002,0-1.845.303-2.528.91s-1.102,1.449-1.256,2.527h7.597Z" fill="#efefef"/>
        <path d="M127.704,57.113l-2.196-2.167c-1.868,1.677-4.15,2.513-6.845,2.513-1.484,0-2.787-.256-3.915-.765-1.126-.51-1.998-1.232-2.614-2.166s-.924-2.018-.924-3.251c0-1.329.376-2.522,1.127-3.581.751-1.059,1.858-1.915,3.321-2.571-.519-.635-.895-1.247-1.126-1.833-.231-.588-.346-1.219-.346-1.892,0-.925.24-1.757.722-2.5.481-.741,1.17-1.324,2.066-1.746.895-.424,1.939-.637,3.134-.637,1.213,0,2.253.231,3.12.694.867.463,1.512,1.078,1.936,1.849s.606,1.626.549,2.571h-3.928c.019-.637-.135-1.122-.463-1.459-.327-.337-.771-.506-1.328-.506-.54,0-.987.16-1.344.477-.357.318-.534.727-.534,1.228,0,.482.144.958.433,1.43.289.473.76,1.054,1.415,1.748l5.084,5.027c.038-.038.067-.078.087-.117.018-.038.038-.077.057-.115l1.646-2.745h4.217l-2.022,3.554c-.385.751-.799,1.463-1.242,2.138l4.882,4.823h-4.968ZM122.967,52.434l-4.969-4.912c-1.868.83-2.802,2.004-2.802,3.526,0,.866.327,1.593.982,2.179.655.588,1.521.882,2.6.882,1.579,0,2.975-.558,4.189-1.675Z" fill="#efefef"/>
        <path d="M139.59,41.674c.896-1.571,2.118-2.793,3.668-3.67,1.55-.875,3.288-1.313,5.214-1.313,2.253,0,4.227.577,5.922,1.732,1.694,1.157,2.879,2.755,3.553,4.796h-4.65c-.462-.962-1.112-1.685-1.95-2.166-.838-.482-1.806-.724-2.903-.724-1.175,0-2.219.275-3.134.824-.915.548-1.627,1.324-2.138,2.326-.51,1-.765,2.176-.765,3.524,0,1.327.256,2.498.765,3.508.511,1.012,1.223,1.792,2.138,2.34.915.55,1.959.824,3.134.824,1.098,0,2.066-.245,2.903-.738.838-.491,1.488-1.218,1.95-2.181h4.65c-.674,2.061-1.853,3.665-3.538,4.811-1.685,1.145-3.664,1.719-5.937,1.719-1.926,0-3.664-.438-5.214-1.315-1.551-.877-2.773-2.094-3.668-3.655s-1.344-3.331-1.344-5.314.448-3.761,1.344-5.33Z" fill="#efefef"/>
        <path d="M166.339,41.601c.838-.482,1.796-.722,2.874-.722v4.246h-1.069c-1.271,0-2.229.299-2.874.896s-.967,1.637-.967,3.119v7.973h-4.044v-16.003h4.044v2.484c.52-.847,1.198-1.512,2.036-1.993Z" fill="#efefef"/>
        <path d="M185.534,50.325h-11.699c.097,1.157.501,2.061,1.213,2.715.712.656,1.589.983,2.629.983,1.502,0,2.571-.645,3.207-1.936h4.362c-.462,1.541-1.348,2.807-2.658,3.799-1.31.993-2.917,1.487-4.823,1.487-1.541,0-2.923-.341-4.146-1.025s-2.176-1.651-2.86-2.903c-.684-1.252-1.025-2.696-1.025-4.333,0-1.656.337-3.11,1.011-4.362.673-1.251,1.618-2.214,2.831-2.887,1.212-.675,2.609-1.012,4.189-1.012,1.52,0,2.883.329,4.087.983s2.138,1.585,2.802,2.787c.664,1.205.997,2.587.997,4.147,0,.577-.039,1.098-.116,1.559ZM181.461,47.609c-.019-1.04-.395-1.872-1.126-2.498-.732-.626-1.628-.939-2.687-.939-1.002,0-1.845.303-2.528.91s-1.102,1.449-1.256,2.527h7.597Z" fill="#efefef"/>
        <path d="M187.368,44.75c.644-1.251,1.521-2.214,2.628-2.887,1.107-.675,2.345-1.012,3.712-1.012,1.194,0,2.239.242,3.134.722.896.482,1.612,1.089,2.152,1.821v-2.282h4.074v16.003h-4.074v-2.34c-.52.751-1.238,1.372-2.152,1.863-.915.491-1.969.736-3.163.736-1.348,0-2.576-.346-3.683-1.038-1.107-.694-1.984-1.672-2.628-2.933-.645-1.261-.968-2.71-.968-4.347,0-1.618.323-3.053.968-4.305ZM198.417,46.585c-.385-.703-.905-1.242-1.559-1.618-.656-.376-1.358-.564-2.109-.564s-1.445.183-2.08.548c-.635.367-1.151.901-1.545,1.604-.396.703-.592,1.536-.592,2.5s.197,1.806.592,2.527c.394.722.914,1.275,1.559,1.661.645.384,1.333.577,2.066.577.751,0,1.453-.188,2.109-.564.654-.376,1.174-.915,1.559-1.618s.577-1.545.577-2.527-.192-1.825-.577-2.527Z" fill="#efefef"/>
        <path d="M210.579,44.433v7.74c0,.539.13.929.39,1.171.26.24.698.36,1.314.36h1.878v3.409h-2.542c-3.408,0-5.113-1.656-5.113-4.968v-7.713h-1.906v-3.322h1.906v-3.957h4.074v3.957h3.581v3.322h-3.581Z" fill="#efefef"/>
        <path d="M216.197,38.524c-.472-.452-.707-1.014-.707-1.689s.235-1.237.707-1.691c.472-.452,1.065-.678,1.777-.678s1.305.226,1.777.678c.471.454.707,1.016.707,1.691s-.236,1.237-.707,1.689c-.472.454-1.065.68-1.777.68s-1.305-.226-1.777-.68ZM219.967,41.111v16.003h-4.044v-16.003h4.044Z" fill="#efefef"/>
        <path d="M229.47,53.388l4.044-12.277h4.304l-5.922,16.003h-4.91l-5.893-16.003h4.333l4.044,12.277Z" fill="#efefef"/>
        <path d="M253.706,50.325h-11.699c.097,1.157.501,2.061,1.213,2.715.712.656,1.589.983,2.629.983,1.502,0,2.571-.645,3.207-1.936h4.362c-.462,1.541-1.348,2.807-2.658,3.799-1.31.993-2.917,1.487-4.823,1.487-1.541,0-2.923-.341-4.146-1.025-1.223-.684-2.176-1.651-2.86-2.903-.684-1.252-1.025-2.696-1.025-4.333,0-1.656.337-3.11,1.011-4.362.673-1.251,1.618-2.214,2.831-2.887,1.212-.675,2.609-1.012,4.189-1.012,1.52,0,2.883.329,4.087.983s2.138,1.585,2.802,2.787c.664,1.205.997,2.587.997,4.147,0,.577-.039,1.098-.116,1.559ZM249.633,47.609c-.019-1.04-.395-1.872-1.126-2.498-.732-.626-1.628-.939-2.687-.939-1.002,0-1.845.303-2.528.91s-1.102,1.449-1.256,2.527h7.597Z" fill="#efefef"/>
        <path d="M283.315,36.95v20.163h-4.044v-13.115l-5.402,13.115h-3.062l-5.43-13.115v13.115h-4.044v-20.163h4.593l6.412,14.992,6.413-14.992h4.564Z" fill="#efefef"/>
        <path d="M286.073,44.75c.644-1.251,1.521-2.214,2.628-2.887,1.107-.675,2.345-1.012,3.712-1.012,1.194,0,2.239.242,3.134.722.896.482,1.612,1.089,2.152,1.821v-2.282h4.074v16.003h-4.074v-2.34c-.52.751-1.238,1.372-2.152,1.863-.915.491-1.969.736-3.163.736-1.348,0-2.576-.346-3.683-1.038-1.107-.694-1.984-1.672-2.628-2.933-.645-1.261-.968-2.71-.968-4.347,0-1.618.323-3.053.968-4.305ZM297.122,46.585c-.385-.703-.905-1.242-1.559-1.618-.656-.376-1.358-.564-2.109-.564s-1.445.183-2.08.548c-.635.367-1.151.901-1.545,1.604-.396.703-.592,1.536-.592,2.5s.197,1.806.592,2.527c.394.722.914,1.275,1.559,1.661.645.384,1.333.577,2.066.577.751,0,1.453-.188,2.109-.564.654-.376,1.174-.915,1.559-1.618s.577-1.545.577-2.527-.192-1.825-.577-2.527Z" fill="#efefef"/>
        <path d="M310.656,41.601c.838-.482,1.796-.722,2.874-.722v4.246h-1.069c-1.271,0-2.229.299-2.874.896s-.967,1.637-.967,3.119v7.973h-4.044v-16.003h4.044v2.484c.52-.847,1.198-1.512,2.036-1.993Z" fill="#efefef"/>
        <path d="M324.565,57.113l-5.43-6.817v6.817h-4.044v-21.376h4.044v12.16l5.373-6.787h5.257l-7.048,8.029,7.106,7.973h-5.257Z" fill="#efefef"/>
        <path d="M345.565,50.325h-11.699c.097,1.157.501,2.061,1.213,2.715.712.656,1.589.983,2.629.983,1.502,0,2.571-.645,3.207-1.936h4.362c-.462,1.541-1.348,2.807-2.658,3.799-1.31.993-2.917,1.487-4.823,1.487-1.541,0-2.923-.341-4.146-1.025-1.223-.684-2.176-1.651-2.86-2.903s-1.025-2.696-1.025-4.333c0-1.656.337-3.11,1.011-4.362.673-1.251,1.618-2.214,2.831-2.887,1.212-.675,2.609-1.012,4.189-1.012,1.52,0,2.883.329,4.087.983s2.138,1.585,2.802,2.787c.664,1.205.997,2.587.997,4.147,0,.577-.039,1.098-.116,1.559ZM341.492,47.609c-.019-1.04-.395-1.872-1.126-2.498-.732-.626-1.628-.939-2.687-.939-1.002,0-1.845.303-2.528.91s-1.102,1.449-1.256,2.527h7.597Z" fill="#efefef"/>
        <path d="M352.181,44.433v7.74c0,.539.13.929.39,1.171.26.24.698.36,1.314.36h1.878v3.409h-2.542c-3.408,0-5.113-1.656-5.113-4.968v-7.713h-1.906v-3.322h1.906v-3.957h4.074v3.957h3.581v3.322h-3.581Z" fill="#efefef"/>
        <path d="M357.798,38.524c-.472-.452-.707-1.014-.707-1.689s.235-1.237.707-1.691c.472-.452,1.065-.678,1.777-.678s1.305.226,1.777.678c.471.454.707,1.016.707,1.691s-.236,1.237-.707,1.689c-.472.454-1.065.68-1.777.68s-1.305-.226-1.777-.68ZM361.568,41.111v16.003h-4.044v-16.003h4.044Z" fill="#efefef"/>
        <path d="M377.889,42.685c1.174,1.204,1.762,2.884,1.762,5.041v9.388h-4.044v-8.84c0-1.27-.318-2.247-.953-2.931-.636-.684-1.502-1.026-2.6-1.026-1.117,0-1.998.343-2.643,1.026-.645.684-.967,1.661-.967,2.931v8.84h-4.044v-16.003h4.044v1.993c.538-.694,1.227-1.238,2.066-1.633.838-.393,1.757-.591,2.758-.591,1.907,0,3.448.602,4.622,1.806Z" fill="#efefef"/>
        <path d="M391.755,41.558c.904.473,1.617,1.084,2.137,1.835v-2.282h4.074v16.117c0,1.484-.299,2.807-.896,3.973-.597,1.165-1.492,2.089-2.687,2.773-1.194.684-2.639,1.026-4.333,1.026-2.273,0-4.135-.531-5.59-1.59s-2.278-2.503-2.47-4.333h4.015c.211.732.669,1.315,1.372,1.748.703.433,1.554.651,2.556.651,1.174,0,2.127-.351,2.86-1.056.731-.703,1.098-1.766,1.098-3.192v-2.484c-.52.751-1.238,1.378-2.152,1.879-.915.499-1.959.75-3.134.75-1.348,0-2.58-.346-3.697-1.038-1.118-.694-1.999-1.672-2.643-2.933-.645-1.261-.968-2.71-.968-4.347,0-1.618.323-3.053.968-4.305.644-1.251,1.521-2.214,2.628-2.887,1.107-.675,2.345-1.012,3.712-1.012,1.194,0,2.243.237,3.149.708ZM393.314,46.585c-.385-.703-.905-1.242-1.559-1.618-.656-.376-1.358-.564-2.109-.564s-1.445.183-2.08.548c-.635.367-1.151.901-1.545,1.604-.396.703-.592,1.536-.592,2.5s.197,1.806.592,2.527c.394.722.914,1.275,1.559,1.661.645.384,1.333.577,2.066.577.751,0,1.453-.188,2.109-.564.654-.376,1.174-.915,1.559-1.618s.577-1.545.577-2.527-.192-1.825-.577-2.527Z" fill="#efefef"/>
      </g>
    </g>
  </g>
</svg>