<?xml version="1.0" encoding="UTF-8"?>
<svg id="b" data-name="Layer 2" xmlns="http://www.w3.org/2000/svg" width="318.611" height="65" viewBox="0 0 318.611 65">
  <g id="c" data-name="Layer 1">
    <g id="d" data-name="Group 40">
      <path id="e" data-name="Path 61" d="M313.966,0h-41.786v1.835c1.799-.134,3.377,1.191,3.555,2.987v13.419c-.001,2.598.216,5.191.65,7.753l-4.504,3.838c.075.832.171,1.656.294,2.48.163,1.137.379,2.252.635,3.367.085.359.172.718.265,1.074l4.93-4.165c.722,2.227,1.603,4.399,2.636,6.5,1.888,3.814,4.257,7.369,7.049,10.58-.26.434-.526.863-.812,1.29s-.546.832-.832,1.241c-.824,1.192-1.715,2.362-2.671,3.512-.307.372-.621.743-.946,1.107s-.642.723-.975,1.081c-3.253-3.472-5.981-7.401-8.097-11.662-3.111-6.262-4.735-13.157-4.745-20.149V0h-15v1.835c1.799-.134,3.377,1.191,3.555,2.987v21.267c.01,7.236,1.69,14.372,4.909,20.853,3.384,6.72,8.145,12.651,13.975,17.408l.767.65.769-.65c1.672-1.414,3.26-2.892,4.712-4.396l.564-.578h0c.325-.351.65-.705.975-1.063s.64-.723.949-1.087c.965-1.135,1.87-2.293,2.715-3.473.284-.401.562-.803.837-1.209s.544-.829.812-1.246c1.724,1.842,3.555,3.581,5.483,5.208l.767.65.769-.65c1.644-1.385,3.216-2.852,4.712-4.396h0l.055-.06.509-.52h0c3.509-3.682,6.445-7.87,8.71-12.424,3.219-6.482,4.898-13.619,4.907-20.856V4.826c.176-1.794,1.749-3.121,3.547-2.992V0h-4.644ZM308.138,38.391c-2.119,4.259-4.848,8.186-8.1,11.657-2.373-2.545-4.476-5.33-6.274-8.31-.067-.107-.13-.213-.193-.325-.431-.736-.843-1.48-1.224-2.223-.141-.27-.278-.539-.408-.812-2.167-4.385-3.621-9.088-4.308-13.931l6.677-5.64v7.267c.001,2.823-.267,5.639-.803,8.411.447,1.094.94,2.177,1.477,3.25h0c.993-3.807,1.495-7.726,1.495-11.661v-3.538c.065-3.689,1.765-7.158,4.641-9.469V4.925l-13.926,11.862V1.838h25.686v3.006h0v13.398c-.01,6.992-1.633,13.887-4.743,20.149" fill="#efefef"/>
      <path id="f" data-name="Path 62" d="M31.404,26.562c-1.179,1.587-2.268,3.238-3.265,4.945-.997,1.668-1.933,3.408-2.808,5.218-1.397,2.725-2.502,5.589-3.297,8.546h4.94l-2.746,10.4h-14.491l.091-.916c.061-.691.132-1.372.214-2.043.122-.835.255-1.68.396-2.533.182-.975.385-1.95.609-2.925.264-1.118.57-2.237.916-3.357.366-1.221.773-2.442,1.22-3.663.508-1.342,1.057-2.675,1.648-3.997.65-1.445,1.354-2.869,2.112-4.272.794-1.506,1.661-3.001,2.6-4.487H0V8.035h11.05v8.789h16.815l4.79-.275,2.168,5.647-2.35,2.961-1.069,1.404Z" fill="#efefef"/>
      <path id="g" data-name="Path 63" d="M62.186,32.94l-6.409-8.307,11.934-9.491,9.064,2.868c.304.975.599,2.053.884,3.235.325,1.408.6,2.833.825,4.274.244,1.689.427,3.357.549,5.005.121,1.819.141,3.642.06,5.463-.304,6.409-2.207,11.486-5.707,15.231-1.721,1.845-3.839,3.274-6.194,4.179-1.104.42-2.247.727-3.412.916-1.159.212-2.332.335-3.51.367-2.692.092-5.379-.293-7.936-1.137-2.545-.78-4.854-2.186-6.714-4.09-1.545-1.68-2.719-3.666-3.448-5.829-.862-2.471-1.386-5.048-1.557-7.66-.083-.985-.103-1.974-.06-2.961.04-.975.112-1.982.214-3.021.139-1.495.404-2.975.793-4.425-1.038-.04-2.086-.132-3.144-.275-.942-.094-1.874-.274-2.784-.538l1.95-11.445c2.093.713,4.265,1.164,6.469,1.344,1.327.16,2.661.251,3.997.273,1.244.029,2.489-.032,3.724-.182l2.385,5.947-.702,1.373c-.232.435-.436.884-.611,1.344-.8,2.032-1.293,4.172-1.462,6.349-.234,2.212-.122,4.447.335,6.623.364,2.12,1.415,4.061,2.99,5.525,1.569,1.379,3.625,2.072,5.708,1.922,2.089.012,4.084-.864,5.489-2.41,1.703-2.104,2.61-4.741,2.563-7.447.061-1.464.02-2.93-.122-4.387-.122-1.12-.316-2.231-.58-3.326l-5.582,4.691Z" fill="#efefef"/>
      <path id="h" data-name="Path 64" d="M85.583,27.385c-.877-.032-1.748-.155-2.6-.366-.989-.162-1.934-.526-2.777-1.068l2.197-11.232c1.103.443,2.235.81,3.388,1.098,1.066.27,2.146.485,3.235.642.975.143,2.004.245,3.087.305.874.04,1.849.06,2.925.06l1.709-.031-.551,23.438h-11.017l.403-12.849Z" fill="#efefef"/>
      <path id="i" data-name="Path 65" d="M108.032,27.658c-4.944,0-8.2-.692-9.766-2.075l2.655-10.713c3.716,1.352,7.643,2.034,11.597,2.013h18.586v38.793h-10.959v-28.018h-12.114Z" fill="#efefef"/>
      <path id="j" data-name="Path 66" d="M138.265,27.385c-.91-.021-1.814-.164-2.686-.426-1.052-.181-2.058-.568-2.961-1.137l2.319-11.108c2.031.825,4.151,1.409,6.318,1.739.949.167,1.907.269,2.87.305.854.061,1.81.091,2.87.091h2.197v38.828h-10.925l-.002-28.292Z" fill="#efefef"/>
      <path id="k" data-name="Path 67" d="M177.286,32.94l-6.409-8.307,11.934-9.491,9.064,2.868c.304.975.599,2.053.884,3.235.325,1.408.6,2.833.825,4.274.244,1.689.427,3.357.549,5.005.121,1.819.141,3.642.06,5.463-.304,6.409-2.207,11.486-5.707,15.231-1.721,1.845-3.839,3.274-6.194,4.179-1.104.42-2.247.727-3.412.916-1.159.212-2.332.335-3.51.367-2.692.092-5.379-.293-7.936-1.137-2.545-.78-4.854-2.186-6.714-4.09-1.545-1.68-2.719-3.666-3.448-5.829-.862-2.471-1.386-5.048-1.557-7.66-.083-.985-.103-1.974-.06-2.961.04-.975.112-1.982.215-3.021.139-1.495.404-2.975.793-4.425-1.038-.04-2.086-.132-3.144-.275-.94-.098-1.87-.282-2.777-.549l1.95-11.445c2.093.713,4.265,1.164,6.469,1.344,1.327.16,2.661.251,3.997.273,1.244.029,2.489-.032,3.724-.182l2.381,5.951-.702,1.373c-.232.435-.436.884-.611,1.344-.8,2.032-1.293,4.172-1.462,6.349-.234,2.212-.122,4.447.335,6.623.364,2.12,1.415,4.061,2.99,5.525,1.569,1.379,3.625,2.072,5.708,1.922,2.09.013,4.088-.863,5.494-2.41,1.703-2.104,2.61-4.741,2.563-7.447.061-1.464.02-2.93-.122-4.387-.122-1.12-.316-2.231-.58-3.326l-5.588,4.699Z" fill="#efefef"/>
      <path id="l" data-name="Path 68" d="M229.157,54.183c-2.866,1.84-6.206,2.805-9.612,2.777-1.346.023-2.692-.048-4.028-.214-1.378-.187-2.737-.494-4.062-.915-1.344-.42-2.626-1.015-3.814-1.77-1.228-.761-2.33-1.708-3.266-2.808-1.543-1.822-2.696-3.94-3.388-6.225-.698-2.452-1.058-4.988-1.069-7.538-.021-1.057,0-2.105.06-3.144.063-.916.153-1.831.276-2.746.103-.773.235-1.557.396-2.35.101-.569.236-1.209.396-1.922-.773-.101-1.73-.284-2.87-.549-1.005-.174-1.975-.515-2.868-1.007l2.6-10.887c2.32.688,4.686,1.208,7.08,1.557,2.799.396,5.623.58,8.45.549l22.4-.184c.589,3.623,1.017,6.746,1.282,9.371.225,2.502.367,5.392.426,8.668.18,4.201-.603,8.387-2.288,12.239-1.327,2.896-3.442,5.36-6.103,7.111M211.669,27.707c-.102.408-.195.843-.275,1.313-.123.61-.225,1.26-.305,1.95-.101.835-.172,1.702-.213,2.6-.061,1.057-.092,2.136-.093,3.235-.124,2.513.692,4.982,2.288,6.927,1.666,1.755,4.072,2.606,6.471,2.288,1.969-.067,3.81-.993,5.037-2.533,1.469-2.033,2.181-4.516,2.013-7.018,0-.835-.03-1.702-.089-2.6-.063-.793-.134-1.597-.215-2.411-.082-.711-.184-1.433-.305-2.166-.083-.59-.175-1.171-.275-1.74l-14.04.156Z" fill="#efefef"/>
    </g>
  </g>
</svg>