<?xml version="1.0" encoding="UTF-8"?>
<svg id="b" data-name="Layer 2" xmlns="http://www.w3.org/2000/svg" width="466" height="466" xmlns:xlink="http://www.w3.org/1999/xlink" viewBox="0 0 466 466">
  <defs>
    <clipPath id="d">
      <circle cx="233" cy="233" r="233" fill="none"/>
    </clipPath>
  </defs>
  <g id="c" data-name="Layer 1">
    <g clip-path="url(#d)">
      <g>
        <path id="e" data-name="Path 1138" d="M606.571,280.016c.217-37.405,5.068-75.831,4.899-113.091-.054-12.827-2.377-23.445-15.149-29.074l-64.386-18.256c-2.365-4.941-3.017-6.914-8.314-8.911-6.373-2.404-12.912-4.342-19.566-5.798-8.167-1.012-16.403-1.377-24.627-1.092-5.287,1.098-9.567,4.972-11.185,10.124-2.311-.03-4.652-.38-6.963-.326-18.944.452-39.07.495-57.876,1.623-7.119-.137-14.003,2.553-19.143,7.481-9.363,8.7-10.467,20.567-12.971,32.41-6.305-9.653-8.815-13.683-20.398-16.621-33.492-7.359-67.774-10.488-102.044-9.315-15.572.229-37.647-.507-51.059,7.21-13.987,9.228-27.321,19.407-39.909,30.467-15.874.01-31.737.816-47.529,2.413-7.094.51-13.807,3.407-19.047,8.217-1.279,1.255-2.51,3.813-3.752,4.537-1.514.875-3.529.603-5.171,1.146-8.742,3.017-8.681,12.905-8.718,20.688.34,1.974.563,3.967.669,5.967-.157.814-1.913,1.671-2.497,2.54-4.827,7.276-5.496,32.977-2.202,40.983,3.972,7.775,10.662,13.819,18.799,16.983-2.246,12.38.625,25.142,7.958,35.366l7.927,7.143c-3.433-.266-6.883-.207-10.305.175-8.694-.048-21.442-2.22-29.43-1.261-5.43.646-3.168,8.446-3.693,12.633h543.943c.175-.603.314-1.207.446-1.913l-1.044-2.455c-1.483-.262-2.948-.617-4.386-1.062-9.792-1.394-22.763-.983-32.971-1.424-.157,0-.646.519-1.206.549l-.253-1.207c8.205-3.813,11.397-15.541,12.235-23.964.394-2.063.286-4.19-.314-6.202l24.435,1.056c2.094.09,5.086-5.611,4.778-7.734M378.709,172.813c1.429-9.611,3.495-19.116,6.184-28.452,2.021-8.024,3.886-15.197,13.273-16.959l99.752-2.817-5.207,7.885c-4.344,23.119-10.256,48.5-12.669,71.873-1.002,9.695-.446,19.976-1.291,29.725l-37.091-1.605c.79-8.682.715-17.42-.223-26.087-1.762-10.902-6.485-12.633-16.621-14.16-12.778-1.918-25.943-2.305-38.739-4.048-1.243-.169-2.474-.603-3.704-.845-.344-4.338-3.813-10.353-3.656-14.48M195.972,151.088c4.937-4.857,11.236-8.095,18.057-9.285,12.133-.422,26.015.929,38.341,1.116,12.482.187,25.176.338,37.726.44.717-.035,1.419-.209,2.069-.513l-17.961,31.577-96.313-7.909c6.196-4.911,11.819-10.618,18.099-15.427M135.557,313.584c-.284-1.641,1.569-1.297,2.751-2.232,5.023-4.1,8.901-9.429,11.258-15.469.639-1.665,1.75-7.728,2.805-8.036,17.207.489,34.498,2.89,51.734,2.775,4.786-.776,9.646-.978,14.48-.603.007,8.25,1.863,16.393,5.43,23.831l-88.458-.265ZM274.814,285.717c-.724,8.181-5.659,24.977-16.115,23.789-7.536-.857-10.775-14.57-11.089-20.941-.41-8.416,3.017-30.214,14.588-30.057,10.86.151,13.327,19.179,12.615,27.203M368.816,314.236l-92.307-.465c5.521-7.173,8.588-15.933,8.748-24.983l75.269-.905c-.619,8.641,1.822,17.225,6.896,24.247.429.529,1.049.869,1.726.947l-.331,1.158ZM369.088,273.211l-79.637,1.605c.507-8.525.457-17.074-.151-25.593-.603-7.614-2.111-23.059-7.933-28.356s-25.225-5.822-32.139-2.558c-11.602,5.478-15.909,33.719-20.935,44.989-1.321,2.956-4.417,7.433-7.692,8.253-3.433.371-6.888.518-10.341.44-6.504.08-13.008-.204-19.481-.851-8.203-1.216-14.566-7.791-15.511-16.03l29.737,1.285c10.256-1.249,15.294-16.121,3.729-19.252l-122.092-5.641c-7.68-6.522-2.986-15.342-1.973-23.089.41-3.155-.247-13.273,1.55-14.956,7.095-1.81,10.588-9.394,16.935-12.362,7.167-3.348,24.133-.923,32.609-.821,33.888.422,68.175-.32,101.912,2.051,14.075.989,28.145,2.172,42.232,3.457.953-.247,1.291-1.026,1.78-1.756,2.799-4.223,5.75-12.386,8.386-17.363,3.089-5.828,9.726-19.909,15.083-22.998,1.354-.792,2.88-1.243,4.447-1.315,13.273,2.763,28.392,3.312,41.436,6.679,8.947,2.311,11.505,9.315,14.564,17.176,3.506,10.077,6.417,20.351,8.718,30.769l55.915,7.801c1.176,1.032,1.575,5.774,1.689,7.499.41,6.16-1.52,26.878.217,30.335.422.845,1.563,1.37,1.81,2.305.198,2.324.144,4.662-.163,6.974-1.068,8.446-6.474,17.985-16.109,17.273.175-10.564,3.258-35.493-6.449-42.425-6.929-3.318-14.936-3.566-22.057-.682-8.223,5.629-11.463,29.876-15.155,39.577-.839,2.196-2.709,6.636-4.911,7.59M389.831,301.216c-3.561-10.692-3.243-22.297.899-32.778,2.184-4.73,6.636-9.967,11.668-5.038,8.114,7.994,6.479,32.633-.826,40.905-4.706,5.327-9.339,2.534-11.741-3.089M416.612,313.928c-1.388,0-2.703.446-4.096.459-7.403.085-5.001-.127-2.497-3.952,2.946-4.814,4.971-10.133,5.973-15.686l.495-11.463,21.785.941-.471,10.89c.753,6.218,3.506,12.024,7.843,16.543l4.272,3.143c-11.095-.115-22.214-.688-33.315-.869M537.716,316.836l-76.017-2.413c10.129-4.736,11.499-17.575,12.742-27.481l55.807,2.51.845.923c-.706,6.759.333,13.587,3.017,19.831.429.941,4.054,6.226,3.572,6.636M561.397,307.31c-7.022.109-9.05-13.213-8.959-18.413s2.841-19.559,9.581-19.849c5.605.79,7.644,7.692,8.307,12.489,1.038,7.572-.199,23.095-8.929,25.768M576.909,214.72l-8.218-.941,1.502-34.739,8.193,1.538-1.478,34.142ZM596.07,276.306l-11.777-.513,4.223-97.447c-.376-2.322-1.526-4.448-3.264-6.033-6.305-3.145-13.116-5.149-20.12-5.919-1.4.078-3.903,1.973-3.952,3.119l-3.451,79.776-14.425-.603c-2.721-.121-6.787,5.78-7.843,8.109-1.491,5.75-3.273,11.42-5.339,16.989-9.545.259-19.071-.724-28.603-.977-1.951.249-3.916.372-5.882.368-6.226-.784-7.239-7.192-7.457-12.398.757-39.427,5.058-78.706,12.851-117.363.365-4.904,2.773-9.429,6.636-12.471,3.264-2.226,7.433-2.649,11.077-1.122,23.934,4.989,48.072,13.563,72.096,18.703,3.65.718,10.42,7.391,10.256,10.944l-5.025,116.838Z" fill="#071538"/>
        <path id="f" data-name="Path 1139" d="M433.938,244.915c-.235-.929-1.382-1.46-1.81-2.305-1.737-3.457.193-24.175-.217-30.335-.115-1.726-.513-6.467-1.689-7.499l-55.915-7.801c-2.301-10.418-5.212-20.692-8.718-30.769-3.059-7.843-5.617-14.866-14.564-17.176-13.044-3.372-28.151-3.915-41.436-6.679-1.566.072-3.092.523-4.447,1.315-5.375,3.119-12.012,17.176-15.083,22.998-2.637,4.977-5.587,13.134-8.386,17.363-.482.73-.826,1.508-1.78,1.756-14.087-1.279-28.157-2.461-42.232-3.457-33.785-2.371-68.024-1.629-101.912-2.051-8.494-.103-25.442-2.528-32.609.82-6.353,2.968-9.84,10.576-16.935,12.362-1.81,1.671-1.134,11.807-1.55,14.956-1.007,7.747-5.708,16.561,1.973,23.089l122.092,5.641c11.565,3.137,6.504,18.009-3.729,19.252l-29.737-1.285c.946,8.239,7.309,14.814,15.511,16.03,6.473.647,12.977.931,19.481.851,3.453.078,6.907-.069,10.341-.44,3.282-.82,6.377-5.297,7.692-8.253,5.026-11.27,9.333-39.511,20.935-44.989,6.92-3.264,26.317-2.733,32.139,2.558s7.348,20.73,7.933,28.356c.608,8.519.658,17.068.151,25.593l79.637-1.605c2.208-.953,4.073-5.394,4.911-7.59,3.716-9.701,6.932-33.949,15.155-39.577,7.121-2.884,15.128-2.636,22.057.682,9.707,6.938,6.636,31.861,6.449,42.425,9.653.706,15.041-8.839,16.109-17.273.306-2.312.361-4.65.163-6.974M176.358,215.341c-.738,6.115-5.825,10.777-11.982,10.98-21.038,1.207-45.176-3.535-66.546-2.854-4.985-.356-8.738-4.686-8.382-9.671.052-.73.192-1.451.418-2.148,2.536-7.54,6.006-14.733,10.329-21.412,2.667-2.769,5.171-2.54,8.832-2.703,18.035-.511,36.083.205,54.021,2.142,2.22-.031,4.339.929,5.78,2.618,3.492,7.328,6.025,15.076,7.536,23.053M236.974,204.372c-2.446,4.218-6.286,7.45-10.86,9.14-9.577.76-19.205.584-28.748-.525-3.722-.115-7.173,1.454-10.6-1.81s-6.118-12.507-2.95-16.657c.286-.496.703-.903,1.206-1.177,2.83-1.677,19.831.078,24.465.169,7.354-.747,14.774-.544,22.076.603,4.298,1.269,6.753,5.783,5.484,10.081-.017.059-.035.117-.054.176M292.123,184.367c2.334-8.115,5.618-15.926,9.785-23.27,1.955-3.662,4.652-9.551,9.237-10.256,4.456-.231,8.923.156,13.273,1.152,4.392,1.207,5.194,11.403,5.948,15.463,1.538,7.186,2.684,14.451,3.433,21.762.042.899.211,2.341-.633,2.884l-34.467-1.81c-3.179-.495-6.468-2.353-6.564-5.9M325.666,214.177c-2.784-.972-4.253-4.017-3.282-6.801.303-.868.824-1.642,1.514-2.249,2.631-2.262,9.653-.706,12.996-.682,8.09,8.796-3.578,12.066-11.227,9.732M360.219,193.248c-2.854.712-15.873,1.87-17.436.139l-6.812-39.819c5.309.688,15.939.73,19.239,5.255,4.006,7.646,6.928,15.813,8.681,24.265,1.206,5.43,3.017,8.489-3.674,10.172" fill="#f5faff"/>
        <path id="g" data-name="Path 1141" d="M398.198,127.39c-9.4,1.762-11.258,8.941-13.273,16.959-2.69,9.337-4.755,18.842-6.183,28.452-.156,4.151,3.313,10.16,3.656,14.48,1.206.223,2.455.676,3.704.845,12.815,1.744,25.943,2.13,38.738,4.048,10.135,1.52,14.859,3.258,16.621,14.16.938,8.667,1.013,17.406.224,26.087l37.091,1.605c.844-9.75.29-20.03,1.292-29.725,2.413-23.372,8.338-48.748,12.67-71.873l5.207-7.885-99.747,2.848ZM456.116,183.745c-1.994,2.553-4.884,4.252-8.085,4.754-10.038.215-20.081-.216-30.063-1.291-3.728-.261-7.425-.843-11.053-1.738-.834-.806-1.426-1.827-1.713-2.95.183-6.375,1.249-12.693,3.167-18.775,1.128-4.048,2.239-8.76,7.064-9.563,12.006,1.116,25.779-.163,37.575,1.466,4.067.212,7.207,3.654,7.047,7.722l-3.939,20.374Z" fill="#f5faff"/>
        <path id="h" data-name="Path 1142" d="M274.216,174.364l-96.313-7.909c6.19-4.911,11.819-10.612,18.099-15.427,4.938-4.858,11.238-8.097,18.063-9.285,12.127-.422,26.009.929,38.341,1.116,12.482.187,25.176.338,37.719.44.717-.034,1.42-.208,2.069-.513l-17.979,31.578Z" fill="#f5faff"/>
        <path id="i" data-name="Path 1143" d="M262.199,258.508c-11.547-.163-15.005,21.641-14.588,30.057.314,6.365,3.548,20.078,11.089,20.941,10.456,1.207,15.391-15.608,16.115-23.789.712-8.024-1.731-27.059-12.615-27.203M267.478,287.588c-.639,3.566-4.223,10.667-8.766,7.765-5.508-3.897-4.362-21.756,2.34-22.829,6.703-1.074,7.203,10.751,6.425,15.083" fill="#f5faff"/>
        <path id="j" data-name="Path 1144" d="M402.372,263.401c-5.008-4.929-9.49.308-11.674,5.038-4.139,10.482-4.456,22.086-.893,32.778,2.413,5.623,7.035,8.416,11.741,3.089,7.306-8.271,8.941-32.911.826-40.905M402.263,285.307c-.138,3.107-2.89,12.965-7.288,9.466-3.301-2.63-2.781-19.36,2.245-20.513,4.139-.947,5.164,8.235,5.043,11.047" fill="#f5faff"/>
        <path id="k" data-name="Path 1147" d="M109.035,187.558c18.035-.511,36.083.204,54.021,2.142,2.219-.031,4.337.926,5.78,2.612,3.492,7.328,6.025,15.077,7.536,23.053-.738,6.115-5.825,10.777-11.982,10.98-21.038,1.207-45.176-3.535-66.546-2.848-4.985-.355-8.739-4.684-8.384-9.67.052-.733.194-1.457.421-2.155,2.538-7.54,6.007-14.732,10.329-21.412,2.667-2.769,5.164-2.54,8.832-2.703" fill="#071538"/>
        <path id="l" data-name="Path 1148" d="M311.146,150.828c4.456-.233,8.923.155,13.273,1.152,4.398,1.207,5.201,11.403,5.949,15.463,1.538,7.186,2.682,14.451,3.428,21.762.043.899.217,2.341-.604,2.884l-34.467-1.81c-3.186-.495-6.468-2.353-6.563-5.9,2.336-8.114,5.621-15.925,9.786-23.27,1.955-3.662,4.657-9.544,9.237-10.256" fill="#071538"/>
        <path id="m" data-name="Path 1149" d="M186.791,211.184c-3.361-3.21-6.118-12.507-2.95-16.657.286-.494.704-.899,1.206-1.17,2.83-1.677,19.831.072,24.465.163,7.354-.747,14.774-.544,22.076.603,4.296,1.265,6.753,5.773,5.487,10.069-.018.063-.038.125-.057.188-2.445,4.219-6.286,7.452-10.86,9.14-9.578.762-19.209.587-28.754-.525-3.722-.115-7.173,1.454-10.6-1.81" fill="#071538"/>
        <path id="n" data-name="Path 1150" d="M335.954,153.555c5.308.688,15.94.73,19.239,5.255,4.006,7.646,6.929,15.813,8.681,24.265,1.206,5.43,3.017,8.489-3.674,10.172-2.853.718-15.874,1.876-17.435.139l-6.812-39.831Z" fill="#071538"/>
        <path id="o" data-name="Path 1151" d="M323.882,205.121c2.631-2.256,9.654-.706,12.996-.682,8.091,8.79-3.578,12.066-11.228,9.732-2.784-.972-4.254-4.017-3.282-6.801.303-.868.825-1.642,1.514-2.249" fill="#071538"/>
        <path id="p" data-name="Path 1153" d="M415.41,154.183c12.006,1.116,25.779-.157,37.575,1.466,4.067.212,7.207,3.653,7.047,7.722l-3.934,20.38c-1.994,2.552-4.884,4.251-8.085,4.754-10.04.215-20.083-.216-30.069-1.291-3.728-.263-7.425-.847-11.053-1.744-.832-.806-1.426-1.827-1.713-2.95.183-6.375,1.249-12.693,3.167-18.775,1.128-4.048,2.239-8.76,7.058-9.562" fill="#071538"/>
        <path id="q" data-name="Path 1154" d="M261.022,272.517c6.636-1.062,7.203,10.751,6.425,15.083-.639,3.566-4.223,10.667-8.766,7.765-5.508-3.897-4.356-21.756,2.34-22.829" fill="#071538"/>
        <path id="r" data-name="Path 1155" d="M397.226,274.26c4.139-.947,5.17,8.235,5.043,11.047-.138,3.107-2.89,12.965-7.288,9.46-3.301-2.63-2.781-19.36,2.245-20.513" fill="#071538"/>
      </g>
    </g>
  </g>
</svg>