<?xml version="1.0" encoding="UTF-8"?>
<svg id="b" data-name="Layer 2" xmlns="http://www.w3.org/2000/svg" width="861.393" height="295.998" viewBox="0 0 861.393 295.998">
  <g id="c" data-name="Layer 1">
    <g>
      <path id="d" data-name="Path 1127" d="M860.09,106.803c13.641,78.486-81.405,160.557-212.291,183.307-130.886,22.75-248.056-22.429-261.697-100.915-13.641-78.486,81.4-160.557,212.291-183.307,130.891-22.75,248.056,22.429,261.697,100.915" fill="#cdb977"/>
      <path id="e" data-name="Path 1128" d="M149.638,133.559c.255,2.043-.466,3.005-2.223,3.005h-17.732c-1.267,0-2.093-1.002-2.404-2.884l-6.72-45.67c-.058-.749-.293-1.473-.686-2.113-.475-.448-1.116-.677-1.768-.631h-36.731c-1.266.194-2.449-.674-2.643-1.94-.034-.22-.036-.443-.006-.664l-.125-20.617c0-1.547.696-2.324,2.173-2.324h57.984c1.645-.221,3.157.933,3.378,2.577.019.142.028.285.027.428l7.476,70.834ZM111.004,133.559c.185,2.043-.396,3.005-1.803,3.005h-17.872c-1.462.186-2.799-.848-2.985-2.31-.018-.144-.025-.289-.02-.434l-3.646-35.75c-.22-2.324.411-3.45,2.028-3.45h17.732c1.759,0,2.736,1.055,2.929,3.165l3.636,35.775Z" fill="#f5faff"/>
      <path id="f" data-name="Path 1129" d="M188.368,103.573c.185,2.043-.536,3.005-2.223,3.005h-16.891c-1.267,0-2.093-1.002-2.404-2.884l-2.764-16.395c-.24-1.337-.676-2.043-1.242-2.043h-8.799c-1.828,0-2.709-.846-2.649-2.604l.716-20.617c.087-1.549.763-2.324,2.028-2.324h27.232c1.678-.26,3.249.889,3.509,2.567.022.145.035.291.036.437l3.45,40.858Z" fill="#f5faff"/>
      <path id="g" data-name="Path 1130" d="M254.344,74.158c.256,3.165.451,5.839.501,8.092.228,4.673.181,9.355-.14,14.022-.247,3.55-.867,7.065-1.848,10.486-.574,1.794-1.242,3.556-2.003,5.278-.721,1.547-1.527,2.955-2.273,4.292s-1.643,2.604-2.549,3.801-1.813,2.394-2.784,3.59c-2.249,2.765-4.785,5.283-7.567,7.512-3.223,2.642-6.671,4.996-10.306,7.036-1.187.636-2.033.636-2.464,0l-12.589-18.438c-.951-1.407-.741-2.534.641-3.31,4.22-2.272,8.173-5.01,11.783-8.163,2.688-2.306,4.915-5.099,6.565-8.233.851-1.854,1.522-3.786,2.003-5.769.527-2.169.837-4.385.926-6.615.08-1.617-.501-2.464-1.788-2.464h-32.089c-2.038,0-3.13-.846-3.335-2.464l-5.118-39.616c-.185-1.502.561-2.253,2.173-2.324l17.577-.706c.697-.109,1.409.04,2.003.421.479.499.781,1.141.861,1.828l2.664,15.058c.17.776.24,1.337.281,1.688s.501.561,1.267.561h32.965c2.043,0,3.17,1.127,3.45,3.38.461,4.222.851,7.882,1.177,11.047" fill="#f5faff"/>
      <path id="h" data-name="Path 1131" d="M334.077,78.099c.311,3.005.461,5.909.501,8.583.059,2.596-.157,5.191-.646,7.742-.522,2.475-1.381,4.865-2.554,7.106-1.308,2.495-2.962,4.793-4.913,6.826-.501.561-.501,1.002-.115,1.337l13.315,14.147c.463.432.78.997.907,1.617.024.55-.225,1.077-.666,1.407l-13.856,12.384c-.756.706-1.788.351-3.004-1.002l-37.683-41.168c-.158-.122-.336-.217-.526-.28-.22-.07-.326.21-.185.776l2.579,14.357c.15.631.256.916.406,1.002.252.1.521.147.791.14h6.545c1.547,0,2.304,1.002,2.279,3.005l-.165,18.298c-.025,1.502-.711,2.183-2.048,2.183h-22.034c-1.127,0-1.793-.846-2.003-2.604l-4.402-33.356c.004-.602.12-1.198.34-1.758.254-.812.721-1.542,1.352-2.113l7.166-7.391c.195-.195.335-.439.406-.706-.025-.21-.195-.421-.501-.776l-12.8-13.371c-1.067-1.197-1.187-2.183-.381-3.005l13.521-13.791c.941-.916,2.033-.631,3.415.846l35.279,38.284c.416.501.766-.07,1.062-1.617.13-.631.2-1.758.351-3.38.052-2.192-.105-4.383-.471-6.545-.185-1.502-.626-2.183-1.257-2.183h-6.615c-1.828,0-2.729-1.002-2.684-2.884l.571-17.872c-.141-1.303.802-2.474,2.105-2.615.197-.021.397-.018.594.011h21.673c1.758,0,2.659,1.002,2.824,2.884l1.527,15.484Z" fill="#f5faff"/>
      <path id="i" data-name="Path 1132" d="M74.022,221.82c.185,2.043-.536,3.004-2.223,3.004H13.388c-1.337,0-2.058-.706-2.243-2.183l-4.352-37.998c-.192-1.231.104-2.489.826-3.505l4.587-6.049c.851-1.057.581-1.547-.896-1.547H2.652c-1.828,0-2.709-.846-2.649-2.604l.856-20.617c.087-1.549.765-2.324,2.033-2.324h60.238c1.678-.26,3.249.889,3.509,2.567.022.145.034.291.036.437l7.346,70.819ZM46.84,176.306c-.081-.801-.397-1.56-.906-2.183-.596-.417-1.318-.615-2.043-.561h-14.843c-1.197,0-1.663.776-1.467,2.324l2.504,19.986c.205,1.617,1.002,2.464,2.349,2.464h15.975c1.127,0,1.602-.706,1.342-2.183l-2.909-19.846Z" fill="#f5faff"/>
      <path id="j" data-name="Path 1133" d="M112.901,191.829c.185,2.043-.536,3.004-2.223,3.004h-16.891c-1.267,0-2.093-1.002-2.404-2.884l-2.764-16.395c-.24-1.337-.681-2.043-1.242-2.043h-8.798c-1.828,0-2.709-.846-2.649-2.604l.716-20.617c.087-1.549.763-2.324,2.028-2.324h27.232c1.678-.26,3.249.889,3.509,2.567.022.145.034.291.036.437l3.45,40.858Z" fill="#f5faff"/>
      <path id="k" data-name="Path 1134" d="M182.028,221.82c.185,2.043-.536,3.004-2.223,3.004h-16.806c-1.337,0-2.163-1.002-2.404-2.884l-6.44-45.67c-.23-1.828-1.187-2.744-2.809-2.744h-29.836c-1.828,0-2.709-.846-2.649-2.604l.436-20.617c0-1.547.691-2.324,2.173-2.324h49.751c1.678-.26,3.249.889,3.509,2.567.022.145.034.291.036.437l7.261,70.834Z" fill="#f5faff"/>
      <path id="l" data-name="Path 1135" d="M247.273,221.82c.185,2.043-.536,3.004-2.223,3.004h-16.821c-1.337,0-2.163-1.002-2.404-2.884l-6.44-45.67c-.23-1.828-1.187-2.744-2.809-2.744h-29.836c-1.828,0-2.709-.846-2.649-2.604l.436-20.617c0-1.547.691-2.324,2.173-2.324h49.751c1.678-.26,3.249.889,3.509,2.567.022.145.035.291.036.437l7.276,70.834Z" fill="#f5faff"/>
      <path id="m" data-name="Path 1136" d="M306.274,224.845h-16.465c-1.407,0-2.444-1.002-3.105-2.884l-6.47-18.999c-.13-.494-.377-.776-.741-.846-.351,0-.526.281-.536.776l-.681,10.837c-.014,1.102-.209,2.195-.576,3.235-.414.981-.992,1.885-1.708,2.674-.664.718-1.41,1.355-2.223,1.898-.987.626-2.026,1.167-3.105,1.617-1.139.499-2.311.922-3.505,1.267-1.164.355-2.355.614-3.56.776l-4.372.501c-.808.182-1.654.108-2.419-.21-.468-.373-.724-.951-.686-1.547l-.501-23.151c-.018-.498.116-.989.386-1.407.349-.407.861-.638,1.397-.631,1.886-.071,3.764-.284,5.619-.636,1.783-.257,3.546-.633,5.278-1.127,1.539-.383,3.046-.885,4.507-1.502,1.157-.42,2.244-1.013,3.225-1.758.253-.25.427-.569.501-.916.007-.551-.086-1.099-.275-1.617l-4.507-15.058c-.501-1.758-1.312-2.604-2.439-2.604h-13.651c-1.828,0-2.709-.846-2.634-2.464l.891-20.902c-.039-1.18.886-2.169,2.066-2.208.135-.004.27.004.403.025h27.442c1.727-.055,3.227,1.179,3.505,2.884l20.241,70.934c.606,2.043.1,3.004-1.377,3.004" fill="#f5faff"/>
      <path id="n" data-name="Path 1137" d="M349.9,224.845l-35.415,1.547c-.82.147-1.665.05-2.429-.281-.488-.589-.712-1.354-.616-2.113l.195-22.535c.025-.351,0-.631.035-.846s.025-.351.085-.421c.674-.719,1.63-1.105,2.614-1.057l11.768-.421c1.048-.07,1.471-.632,1.267-1.687l-3.38-20.757c-.3-1.83-.978-2.744-2.033-2.744h-10.015c-1.898,0-2.78-.846-2.719-2.604l.576-20.617c0-1.547.621-2.324,1.958-2.324h27.728c1.723-.223,3.299.994,3.522,2.716.012.096.02.192.024.288l8.924,69.948c.32,2.534-.366,3.801-2.118,3.871" fill="#f5faff"/>
      <g>
        <path id="o" data-name="Path 1138" d="M824.591,188.038c.18-31.048,4.206-62.942,4.066-93.869-.045-10.646-1.973-19.46-12.574-24.132l-53.443-15.153c-1.963-4.101-2.504-5.739-6.901-7.396-5.29-1.995-10.717-3.604-16.24-4.812-6.779-.84-13.615-1.143-20.442-.906-4.388.912-7.941,4.127-9.284,8.403-1.918-.025-3.861-.316-5.779-.27-15.724.376-32.43.411-48.039,1.347-5.909-.114-11.623,2.119-15.889,6.21-7.772,7.221-8.688,17.071-10.767,26.901-5.233-8.012-7.317-11.357-16.931-13.796-27.799-6.108-56.255-8.706-84.7-7.732-12.925.19-31.248-.421-42.38,5.984-11.61,7.659-22.678,16.109-33.126,25.289-13.176.009-26.342.677-39.451,2.003-5.889.424-11.46,2.828-15.809,6.82-1.062,1.042-2.083,3.165-3.115,3.766-1.257.726-2.929.501-4.292.951-7.256,2.504-7.206,10.712-7.236,17.171.282,1.639.467,3.292.556,4.953-.13.676-1.588,1.387-2.073,2.108-4.006,6.039-4.562,27.372-1.828,34.017,3.297,6.453,8.85,11.47,15.604,14.097-1.864,10.276.519,20.868,6.605,29.355l6.58,5.929c-2.849-.221-5.713-.172-8.553.145-7.216-.04-17.797-1.843-24.428-1.047-4.507.536-2.629,7.011-3.065,10.486h451.489c.145-.501.26-1.002.37-1.587l-.866-2.038c-1.231-.218-2.447-.512-3.641-.881-8.128-1.157-18.894-.816-27.367-1.182-.13,0-.536.431-1.001.456l-.21-1.002c6.81-3.165,9.46-12.9,10.155-19.891.327-1.712.238-3.478-.26-5.148l20.281.876c1.738.075,4.222-4.657,3.966-6.42M635.458,99.056c1.186-7.977,2.901-15.867,5.133-23.616,1.677-6.66,3.225-12.614,11.017-14.077l82.798-2.339-4.322,6.545c-3.605,19.19-8.513,40.257-10.516,59.657-.831,8.047-.37,16.581-1.072,24.673l-30.787-1.332c.656-7.206.594-14.459-.185-21.653-1.462-9.049-5.383-10.486-13.796-11.753-10.607-1.592-21.533-1.913-32.155-3.36-1.032-.14-2.053-.501-3.075-.701-.285-3.601-3.165-8.593-3.034-12.018M483.781,81.024c4.097-4.031,9.326-6.719,14.988-7.707,10.07-.351,21.593.771,31.824.926,10.361.155,20.897.28,31.313.366.595-.029,1.178-.174,1.718-.426l-14.908,26.21-79.943-6.565c5.143-4.076,9.81-8.814,15.023-12.805M433.635,215.901c-.235-1.362,1.302-1.077,2.284-1.853,4.169-3.403,7.388-7.826,9.344-12.84.531-1.382,1.452-6.415,2.328-6.67,14.282.406,28.634,2.399,42.941,2.304,3.972-.644,8.007-.812,12.019-.501.006,6.847,1.546,13.607,4.507,19.78l-73.423-.22ZM549.222,192.77c-.601,6.79-4.697,20.732-13.376,19.745-6.255-.711-8.944-12.094-9.204-17.382-.34-6.986,2.504-25.079,12.108-24.948,9.014.125,11.062,15.919,10.471,22.58M627.247,216.442l-76.618-.386c4.582-5.954,7.128-13.225,7.261-20.737l62.476-.751c-.513,7.173,1.512,14.297,5.724,20.126.356.439.87.721,1.432.786l-.274.961ZM627.473,182.389l-66.101,1.332c.421-7.076.379-14.172-.125-21.243-.501-6.32-1.753-19.139-6.585-23.536s-20.937-4.832-26.676-2.123c-9.63,4.547-13.205,27.988-17.377,37.342-1.097,2.454-3.666,6.169-6.385,6.851-2.85.308-5.717.43-8.583.366-5.399.066-10.797-.169-16.17-.706-6.809-1.009-12.09-6.467-12.875-13.305l24.683,1.067c8.513-1.037,12.695-13.381,3.095-15.98l-101.34-4.682c-6.375-5.413-2.479-12.735-1.638-19.164.34-2.619-.205-11.017,1.287-12.414,5.889-1.502,8.789-7.797,14.057-10.261,5.949-2.779,20.031-.766,27.067-.681,28.128.351,56.587-.265,84.59,1.703,11.683.821,23.361,1.803,35.054,2.869.791-.205,1.072-.851,1.477-1.457,2.324-3.505,4.772-10.281,6.961-14.412,2.564-4.837,8.073-16.525,12.519-19.089,1.124-.657,2.391-1.032,3.691-1.092,11.017,2.293,23.566,2.749,34.393,5.543,7.427,1.918,9.55,7.732,12.088,14.257,2.91,8.364,5.326,16.892,7.236,25.539l46.411,6.475c.976.856,1.307,4.792,1.402,6.225.34,5.113-1.262,22.309.18,25.179.35.701,1.297,1.137,1.503,1.913.164,1.929.119,3.87-.135,5.789-.886,7.011-5.373,14.928-13.371,14.337.145-8.769,2.704-29.46-5.353-35.214-5.752-2.754-12.398-2.96-18.308-.566-6.826,4.672-9.515,24.798-12.579,32.85-.696,1.823-2.248,5.508-4.076,6.3M644.69,205.635c-2.956-8.875-2.692-18.507.746-27.207,1.813-3.926,5.508-8.273,9.685-4.181,6.735,6.635,5.378,27.087-.686,33.952-3.906,4.422-7.752,2.103-9.745-2.564M666.919,216.186c-1.152,0-2.243.371-3.4.381-6.145.07-4.151-.105-2.073-3.28,2.445-3.995,4.126-8.41,4.958-13.02l.411-9.515,18.083.781-.391,9.039c.625,5.162,2.91,9.98,6.51,13.731l3.545,2.609c-9.209-.095-18.438-.571-27.652-.721M767.439,218.6l-63.097-2.003c8.408-3.931,9.545-14.587,10.577-22.81l46.321,2.083.701.766c-.586,5.611.276,11.278,2.504,16.46.356.781,3.365,5.168,2.965,5.508M787.095,210.693c-5.829.09-7.512-10.967-7.436-15.284.075-4.317,2.358-16.235,7.952-16.475,4.652.656,6.345,6.385,6.895,10.366.861,6.285-.165,19.169-7.411,21.388M799.97,133.84l-6.821-.781,1.247-28.834,6.801,1.277-1.227,28.339ZM815.875,184.959l-9.775-.426,3.505-80.884c-.312-1.927-1.267-3.692-2.709-5.008-5.233-2.611-10.887-4.274-16.7-4.913-1.162.065-3.24,1.637-3.28,2.589l-2.865,66.217-11.973-.501c-2.259-.1-5.634,4.797-6.51,6.73-1.237,4.773-2.717,9.479-4.432,14.102-7.922.215-15.829-.601-23.741-.811-1.619.207-3.25.309-4.882.305-5.168-.651-6.009-5.969-6.189-10.291.628-32.726,4.198-65.329,10.666-97.415.303-4.07,2.302-7.826,5.508-10.351,2.709-1.848,6.17-2.199,9.194-.931,19.866,4.141,39.901,11.257,59.842,15.524,3.03.596,8.649,6.134,8.513,9.084l-4.171,96.979Z" fill="#071538"/>
        <path id="p" data-name="Path 1139" d="M681.3,158.903c-.195-.771-1.147-1.212-1.503-1.913-1.442-2.869.16-20.066-.18-25.179-.095-1.432-.425-5.368-1.402-6.225l-46.411-6.475c-1.91-8.647-4.326-17.175-7.236-25.539-2.539-6.51-4.662-12.339-12.088-14.257-10.827-2.799-23.366-3.25-34.393-5.543-1.3.06-2.567.434-3.691,1.092-4.462,2.589-9.97,14.257-12.519,19.089-2.188,4.131-4.637,10.902-6.961,14.412-.4.606-.686,1.252-1.477,1.457-11.693-1.062-23.371-2.043-35.054-2.869-28.043-1.968-56.462-1.352-84.59-1.703-7.051-.085-21.118-2.098-27.067.681-5.273,2.464-8.167,8.778-14.057,10.261-1.503,1.387-.941,9.8-1.287,12.414-.836,6.43-4.738,13.746,1.638,19.164l101.34,4.682c9.6,2.604,5.398,14.948-3.095,15.98l-24.683-1.067c.785,6.838,6.066,12.296,12.875,13.306,5.373.537,10.771.773,16.17.706,2.866.064,5.733-.058,8.583-.366,2.724-.681,5.293-4.397,6.385-6.851,4.171-9.354,7.747-32.795,17.377-37.342,5.744-2.709,21.844-2.269,26.676,2.123s6.099,17.206,6.585,23.536c.504,7.071.546,14.167.125,21.243l66.101-1.332c1.833-.791,3.38-4.477,4.076-6.3,3.085-8.052,5.754-28.178,12.579-32.85,5.911-2.394,12.557-2.188,18.308.566,8.057,5.759,5.508,26.446,5.353,35.214,8.012.586,12.484-7.336,13.371-14.337.254-1.919.3-3.86.135-5.789M467.501,134.356c-.613,5.076-4.835,8.946-9.945,9.114-17.462,1.002-37.498-2.935-55.235-2.369-4.138-.296-7.253-3.89-6.957-8.028.043-.606.16-1.205.347-1.783,2.105-6.259,4.985-12.229,8.573-17.772,2.213-2.299,4.292-2.108,7.331-2.243,14.969-.424,29.95.17,44.839,1.778,1.843-.025,3.601.771,4.797,2.173,2.899,6.083,5.001,12.514,6.255,19.134M517.814,125.252c-2.03,3.501-5.218,6.184-9.014,7.587-7.949.631-15.941.485-23.862-.436-3.089-.095-5.954,1.207-8.798-1.502s-5.078-10.381-2.449-13.826c.237-.412.584-.75,1.001-.977,2.349-1.392,16.46.065,20.306.14,6.104-.62,12.263-.452,18.323.501,3.567,1.054,5.606,4.8,4.552,8.367-.014.049-.029.098-.045.146M563.589,108.646c1.937-6.736,4.663-13.219,8.122-19.315,1.622-3.04,3.861-7.927,7.667-8.513,3.699-.192,7.406.13,11.017.957,3.646,1.002,4.311,9.465,4.937,12.835,1.277,5.965,2.228,11.995,2.849,18.063.035.746.175,1.943-.526,2.394l-28.609-1.502c-2.639-.411-5.368-1.953-5.448-4.898M591.431,133.389c-2.311-.807-3.53-3.334-2.724-5.645.251-.72.684-1.363,1.257-1.867,2.184-1.878,8.012-.586,10.787-.566,6.715,7.301-2.97,10.015-9.319,8.077M620.111,116.018c-2.369.591-13.175,1.552-14.472.115l-5.654-33.051c4.407.571,13.23.606,15.969,4.362,3.325,6.347,5.75,13.125,7.206,20.141,1.001,4.507,2.504,7.046-3.05,8.443" fill="#f5faff"/>
        <path id="q" data-name="Path 1140" d="M811.575,78.86c-19.94-4.262-39.976-11.378-59.842-15.524-3.025-1.267-6.485-.916-9.194.931-3.209,2.523-5.209,6.28-5.509,10.351-6.469,32.086-10.039,64.689-10.666,97.415.165,4.322,1.001,9.64,6.19,10.291,1.632.004,3.263-.099,4.883-.305,7.913.21,15.819,1.002,23.741.811,1.715-4.622,3.195-9.329,4.432-14.102.867-1.928,4.241-6.831,6.51-6.73l11.974.501,2.865-66.217c.04-.951,2.119-2.504,3.28-2.589,5.813.639,11.468,2.302,16.7,4.913,1.443,1.316,2.397,3.081,2.709,5.008l-3.505,80.884,9.775.426,4.196-97.009c.125-2.95-5.509-8.513-8.513-9.084M775.416,125.662c-.004.887-.257,1.755-.731,2.504-.793.434-1.699.619-2.599.531-4.126-.25-10.29-1.457-14.593-2.143-2.169-.346-10.467-1.307-11.353-2.729l1.617-37.057c.956-1.885,3.048-2.907,5.123-2.504,6.701,1.011,13.326,2.473,19.83,4.377,1.16.356,2.193,1.039,2.975,1.968.697,1.284,1.065,2.721,1.072,4.181.236,10.294-.21,20.592-1.338,30.827" fill="#f5faff"/>
        <path id="r" data-name="Path 1141" d="M651.634,61.354c-7.803,1.462-9.344,7.421-11.017,14.077-2.232,7.75-3.946,15.639-5.132,23.616-.13,3.445,2.75,8.433,3.034,12.018,1.001.185,2.038.561,3.075.701,10.636,1.447,21.533,1.768,32.154,3.36,8.413,1.262,12.333,2.704,13.796,11.753.779,7.194.841,14.447.186,21.653l30.787,1.332c.701-8.092.241-16.626,1.072-24.673,2.003-19.4,6.921-40.462,10.517-59.657l4.322-6.545-82.793,2.364ZM699.709,108.131c-1.655,2.119-4.054,3.529-6.711,3.946-8.332.179-16.667-.179-24.953-1.072-3.094-.217-6.163-.699-9.174-1.442-.692-.669-1.183-1.517-1.422-2.449.152-5.291,1.037-10.536,2.629-15.584.936-3.36,1.858-7.271,5.864-7.937,9.965.926,21.398-.135,31.188,1.217,3.376.176,5.982,3.033,5.849,6.41l-3.269,16.911Z" fill="#f5faff"/>
        <path id="s" data-name="Path 1142" d="M548.726,100.343l-79.943-6.565c5.138-4.076,9.81-8.809,15.023-12.805,4.099-4.033,9.328-6.721,14.993-7.707,10.066-.351,21.588.771,31.824.926,10.361.155,20.897.28,31.308.366.595-.028,1.179-.173,1.718-.426l-14.923,26.21Z" fill="#f5faff"/>
        <path id="t" data-name="Path 1143" d="M538.751,170.186c-9.584-.135-12.454,17.962-12.108,24.948.26,5.283,2.945,16.666,9.204,17.382,8.679,1.002,12.775-12.955,13.376-19.745.591-6.66-1.437-22.459-10.471-22.58M543.133,194.323c-.531,2.96-3.505,8.854-7.276,6.445-4.572-3.235-3.621-18.058,1.943-18.949,5.563-.891,5.979,8.924,5.333,12.519" fill="#f5faff"/>
        <path id="u" data-name="Path 1144" d="M655.099,174.247c-4.157-4.091-7.877.256-9.69,4.182-3.435,8.7-3.698,18.332-.741,27.207,2.003,4.667,5.839,6.986,9.745,2.564,6.064-6.865,7.421-27.317.686-33.952M655.009,192.43c-.115,2.579-2.399,10.761-6.049,7.857-2.74-2.183-2.308-16.07,1.863-17.026,3.435-.786,4.286,6.835,4.186,9.169" fill="#f5faff"/>
        <path id="v" data-name="Path 1145" d="M794.524,189.29c-.551-4.006-2.243-9.715-6.895-10.366-5.593.245-7.897,12.174-7.952,16.475s1.608,15.374,7.437,15.284c7.246-2.218,8.278-15.103,7.411-21.388M787.449,202.355c-4.171.215-3.505-13.24-.886-15.098.49-.252,1.037-.371,1.587-.345,4.296.676,3.681,15.218-.701,15.444" fill="#f5faff"/>
        <path id="w" data-name="Path 1146" d="M801.215,105.486l-1.227,28.344-6.821-.786,1.247-28.834,6.801,1.277Z" fill="#f5faff"/>
        <path id="x" data-name="Path 1147" d="M411.621,111.295c14.969-.425,29.95.169,44.839,1.778,1.842-.026,3.6.769,4.797,2.168,2.899,6.083,5.001,12.514,6.255,19.134-.613,5.076-4.835,8.946-9.945,9.114-17.462,1.002-37.498-2.935-55.235-2.364-4.138-.295-7.254-3.888-6.959-8.026.043-.608.161-1.209.349-1.789,2.107-6.258,4.986-12.228,8.573-17.772,2.213-2.299,4.286-2.108,7.331-2.243" fill="#071538"/>
        <path id="y" data-name="Path 1148" d="M579.379,80.808c3.698-.193,7.406.129,11.017.957,3.651,1.002,4.317,9.465,4.938,12.835,1.276,5.965,2.226,11.994,2.845,18.063.035.746.18,1.943-.501,2.394l-28.608-1.502c-2.644-.411-5.368-1.953-5.448-4.898,1.939-6.735,4.665-13.218,8.123-19.315,1.622-3.04,3.866-7.922,7.667-8.513" fill="#071538"/>
        <path id="z" data-name="Path 1149" d="M476.16,130.905c-2.789-2.664-5.078-10.381-2.449-13.826.238-.41.584-.746,1.001-.971,2.349-1.392,16.46.06,20.306.135,6.104-.62,12.263-.452,18.323.501,3.566,1.05,5.605,4.792,4.555,8.357-.015.052-.031.104-.048.156-2.029,3.502-5.217,6.185-9.014,7.587-7.95.633-15.944.487-23.867-.436-3.089-.095-5.954,1.207-8.798-1.502" fill="#071538"/>
        <path id="aa" data-name="Path 1150" d="M599.971,83.072c4.406.571,13.231.606,15.969,4.362,3.325,6.346,5.751,13.125,7.206,20.141,1.001,4.507,2.504,7.046-3.049,8.443-2.368.596-13.176,1.557-14.472.115l-5.654-33.061Z" fill="#071538"/>
        <path id="ab" data-name="Path 1151" d="M589.95,125.873c2.184-1.873,8.013-.586,10.787-.566,6.716,7.296-2.97,10.015-9.32,8.077-2.311-.807-3.531-3.334-2.724-5.645.252-.72.685-1.363,1.257-1.867" fill="#071538"/>
        <path id="ac" data-name="Path 1152" d="M774.654,128.211c-.793.435-1.698.622-2.599.536-4.126-.25-10.29-1.457-14.593-2.143-2.174-.346-10.467-1.312-11.353-2.729l1.613-37.057c.957-1.884,3.048-2.905,5.123-2.504,6.701,1.012,13.326,2.475,19.83,4.377,1.16.355,2.193,1.039,2.975,1.968.696,1.283,1.064,2.717,1.072,4.176.237,10.294-.208,20.592-1.333,30.827-.006.887-.26,1.755-.736,2.504" fill="#071538"/>
        <path id="ad" data-name="Path 1153" d="M665.922,83.592c9.965.926,21.398-.13,31.188,1.217,3.376.176,5.982,3.032,5.849,6.41l-3.266,16.916c-1.655,2.118-4.054,3.529-6.711,3.946-8.333.179-16.67-.179-24.958-1.072-3.094-.218-6.163-.703-9.174-1.447-.691-.669-1.183-1.517-1.422-2.449.152-5.291,1.037-10.536,2.629-15.584.936-3.36,1.858-7.271,5.859-7.937" fill="#071538"/>
        <path id="ae" data-name="Path 1154" d="M537.774,181.813c5.508-.881,5.979,8.924,5.333,12.519-.531,2.96-3.505,8.854-7.276,6.445-4.572-3.235-3.616-18.058,1.943-18.949" fill="#071538"/>
        <path id="af" data-name="Path 1155" d="M650.828,183.261c3.435-.786,4.291,6.835,4.186,9.169-.115,2.579-2.399,10.761-6.049,7.852-2.74-2.183-2.308-16.07,1.863-17.026" fill="#071538"/>
        <path id="ag" data-name="Path 1156" d="M786.562,187.252c.488-.254,1.033-.375,1.582-.351,4.301.671,3.681,15.218-.696,15.444-4.171.215-3.505-13.235-.886-15.093" fill="#071538"/>
      </g>
    </g>
  </g>
</svg>